<svg xmlns="http://www.w3.org/2000/svg" xmlns:svg="http://www.w3.org/2000/svg" id="Layer_1" width="2000" height="2000" x="0" style="enable-background:new 0 0 2000 2000" y="0" version="1.1" viewBox="0 0 2000 2000" xml:space="preserve"><metadata id="metadata1175"/><defs id="defs1173"><filter style="color-interpolation-filters:sRGB" id="filter1423" width="1.2" height="1.2" x="-.1" y="-.1"><feColorMatrix id="feColorMatrix1421" result="fbSourceGraphic" values="1 0 0 0 0 0 1 0 0 0 0 0 1 0 0 0 0 0 1000 -500"/><feColorMatrix id="feColorMatrix1445" in="fbSourceGraphic" result="fbSourceGraphicAlpha" values="0 0 0 -1 0 0 0 0 -1 0 0 0 0 -1 0 0 0 0 1 0"/><feGaussianBlur id="feGaussianBlur1447" in="fbSourceGraphic" result="result8" stdDeviation="3"/><feTurbulence id="feTurbulence1449" baseFrequency="0.03 0.03" numOctaves="8" result="result7" seed="77" type="fractalNoise"/><feColorMatrix id="feColorMatrix1451" result="result5" values="1 0 0 0 0 0 1 0 0 0 0 0 1 0 0 0 0 0 1.6 -0.6"/><feComposite id="feComposite1453" in="result7" in2="result8" operator="in" result="result6"/><feDisplacementMap id="feDisplacementMap1455" in="result5" in2="result6" result="result4" scale="60" xChannelSelector="A" yChannelSelector="A"/><feConvolveMatrix id="feConvolveMatrix1457" divisor="2" kernelMatrix="2 0 0 0 4 0 0 0 -2" order="3 3" result="result9" targetX="2" targetY="2"/><feComposite id="feComposite1459" in="result9" in2="fbSourceGraphic" operator="atop" result="result10"/><feBlend id="feBlend1461" in2="result10" mode="darken" result="fbSourceGraphic"/><feGaussianBlur id="feGaussianBlur1463" in="fbSourceGraphic" result="result0" stdDeviation="5"/><feSpecularLighting id="feSpecularLighting1465" in="result0" lighting-color="#F2D76C" result="result1" specularConstant="1" specularExponent="25" surfaceScale="5"><feDistantLight id="feDistantLight1467" azimuth="235" elevation="60"/></feSpecularLighting><feComposite id="feComposite1469" in="result1" in2="fbSourceGraphic" operator="in" result="result2"/><feComposite id="feComposite1471" in="fbSourceGraphic" in2="result2" k2="1" k3="1" operator="arithmetic" result="fbSourceGraphic"/><feColorMatrix id="feColorMatrix1513" in="fbSourceGraphic" result="fbSourceGraphicAlpha" values="0 0 0 -1 0 0 0 0 -1 0 0 0 0 -1 0 0 0 0 1 0"/><feTurbulence id="feTurbulence1515" baseFrequency="1" in="fbSourceGraphic" numOctaves="3" result="result1" seed="50" type="fractalNoise"/><feColorMatrix id="feColorMatrix1517" in="fbSourceGraphic" result="result0" type="luminanceToAlpha"/><feColorMatrix id="feColorMatrix1519" result="result2" values="1 0 0 0 0 0 1 0 0 0 0 0 1 0 0 0 0 0 0.5 0"/><feComposite id="feComposite1521" in="result1" in2="result2" operator="over" result="result3"/><feColorMatrix id="feColorMatrix1523" result="result91" values="1 0 0 0 0 0 1 0 0 0 0 0 1 0 0 0 0 0 5 -3.2"/><feComposite id="feComposite1525" in2="result91" k1="1.5" operator="arithmetic" result="result93"/><feComposite id="feComposite1527" in="fbSourceGraphic" in2="result93" operator="out" result="result4"/><feComposite id="feComposite1529" in2="result4" k1="1" k2=".5" operator="arithmetic" result="result94"/><feDisplacementMap id="feDisplacementMap1531" in2="result1" result="result92" scale="15" xChannelSelector="R" yChannelSelector="A"/></filter><filter style="color-interpolation-filters:sRGB" id="filter1491" width="1.2" height="1.2" x="-.1" y="-.1"><feTurbulence id="feTurbulence1473" baseFrequency="1" numOctaves="3" result="result1" seed="50" type="fractalNoise"/><feColorMatrix id="feColorMatrix1475" in="SourceGraphic" result="result0" type="luminanceToAlpha"/><feColorMatrix id="feColorMatrix1477" result="result2" values="1 0 0 0 0 0 1 0 0 0 0 0 1 0 0 0 0 0 0.5 0"/><feComposite id="feComposite1479" in="result1" in2="result2" operator="over" result="result3"/><feColorMatrix id="feColorMatrix1481" result="result91" values="1 0 0 0 0 0 1 0 0 0 0 0 1 0 0 0 0 0 5 -3.2"/><feComposite id="feComposite1483" in2="result91" k1="1.5" operator="arithmetic" result="result93"/><feComposite id="feComposite1485" in="SourceGraphic" in2="result93" operator="out" result="result4"/><feComposite id="feComposite1487" in2="result4" k1="1" k2=".5" operator="arithmetic"/><feDisplacementMap id="feDisplacementMap1489" in2="result1" result="result92" scale="15" xChannelSelector="R" yChannelSelector="A"/></filter><filter style="color-interpolation-filters:sRGB" id="filter1511" width="1.2" height="1.2" x="-.1" y="-.1"><feTurbulence id="feTurbulence1493" baseFrequency="1" numOctaves="3" result="result1" seed="50" type="fractalNoise"/><feColorMatrix id="feColorMatrix1495" in="SourceGraphic" result="result0" type="luminanceToAlpha"/><feColorMatrix id="feColorMatrix1497" result="result2" values="1 0 0 0 0 0 1 0 0 0 0 0 1 0 0 0 0 0 0.5 0"/><feComposite id="feComposite1499" in="result1" in2="result2" operator="over" result="result3"/><feColorMatrix id="feColorMatrix1501" result="result91" values="1 0 0 0 0 0 1 0 0 0 0 0 1 0 0 0 0 0 5 -3.2"/><feComposite id="feComposite1503" in2="result91" k1="1.5" operator="arithmetic" result="result93"/><feComposite id="feComposite1505" in="SourceGraphic" in2="result93" operator="out" result="result4"/><feComposite id="feComposite1507" in2="result4" k1="1" k2=".5" operator="arithmetic"/><feDisplacementMap id="feDisplacementMap1509" in2="result1" result="result92" scale="15" xChannelSelector="R" yChannelSelector="A"/></filter><filter style="color-interpolation-filters:sRGB" id="filter1741"><feColorMatrix id="feColorMatrix1739" result="fbSourceGraphic" values="1 0 0 0 0 0 1 0 0 0 0 0 1 0 0 0 0 0 1000 -500"/><feColorMatrix id="feColorMatrix1743" in="fbSourceGraphic" result="fbSourceGraphicAlpha" values="0 0 0 -1 0 0 0 0 -1 0 0 0 0 -1 0 0 0 0 1 0"/><feTurbulence id="feTurbulence1745" baseFrequency=".143" in="fbSourceGraphic" numOctaves="5" type="fractalNoise"/><feColorMatrix id="feColorMatrix1747" result="result1" values="1 0 0 0 0 0 1 0 0 0 0 0 1 0 0 0 0 0 5 -3"/><feComposite id="feComposite1749" in2="fbSourceGraphicAlpha" operator="in"/><feMorphology id="feMorphology1751" operator="dilate" radius="2.7" result="result3"/><feTurbulence id="feTurbulence1753" baseFrequency=".121" numOctaves="2" result="result91"/><feDisplacementMap id="feDisplacementMap1755" in="result3" in2="result91" result="result4" scale="10" xChannelSelector="R" yChannelSelector="A"/><feFlood id="feFlood1757" flood-color="#FFF" flood-opacity="1" result="result92"/><feComposite id="feComposite1759" in2="result4" operator="in" result="result2"/><feComposite id="feComposite1761" in="result2" in2="fbSourceGraphic" operator="over"/></filter><filter style="color-interpolation-filters:sRGB" id="filter1741-3"><feColorMatrix id="feColorMatrix1739-6" result="fbSourceGraphic" values="1 0 0 0 0 0 1 0 0 0 0 0 1 0 0 0 0 0 1000 -500"/><feColorMatrix id="feColorMatrix1743-7" in="fbSourceGraphic" result="fbSourceGraphicAlpha" values="0 0 0 -1 0 0 0 0 -1 0 0 0 0 -1 0 0 0 0 1 0"/><feTurbulence id="feTurbulence1745-5" baseFrequency=".143" numOctaves="5" type="fractalNoise"/><feColorMatrix id="feColorMatrix1747-3" result="result1" values="1 0 0 0 0 0 1 0 0 0 0 0 1 0 0 0 0 0 5 -3"/><feComposite id="feComposite1749-5" in2="fbSourceGraphicAlpha" operator="in"/><feMorphology id="feMorphology1751-6" operator="dilate" radius="2.7" result="result3"/><feTurbulence id="feTurbulence1753-2" baseFrequency=".121" numOctaves="2" result="result91"/><feDisplacementMap id="feDisplacementMap1755-9" in="result3" in2="result91" result="result4" scale="10" xChannelSelector="R" yChannelSelector="A"/><feFlood id="feFlood1757-1" flood-color="#FFF" flood-opacity="1" result="result92"/><feComposite id="feComposite1759-2" in2="result4" operator="in" result="result2"/><feComposite id="feComposite1761-7" in="result2" in2="fbSourceGraphic" operator="over"/></filter><filter style="color-interpolation-filters:sRGB" id="filter1423-0" width="1.2" height="1.2" x="-.1" y="-.1"><feColorMatrix id="feColorMatrix1421-9" result="fbSourceGraphic" values="1 0 0 0 0 0 1 0 0 0 0 0 1 0 0 0 0 0 1000 -500"/><feColorMatrix id="feColorMatrix1445-3" in="fbSourceGraphic" result="fbSourceGraphicAlpha" values="0 0 0 -1 0 0 0 0 -1 0 0 0 0 -1 0 0 0 0 1 0"/><feGaussianBlur id="feGaussianBlur1447-6" in="fbSourceGraphic" result="result8" stdDeviation="3"/><feTurbulence id="feTurbulence1449-0" baseFrequency="0.03 0.03" numOctaves="8" result="result7" seed="77" type="fractalNoise"/><feColorMatrix id="feColorMatrix1451-6" result="result5" values="1 0 0 0 0 0 1 0 0 0 0 0 1 0 0 0 0 0 1.6 -0.6"/><feComposite id="feComposite1453-2" in="result7" in2="result8" operator="in" result="result6"/><feDisplacementMap id="feDisplacementMap1455-6" in="result5" in2="result6" result="result4" scale="60" xChannelSelector="A" yChannelSelector="A"/><feConvolveMatrix id="feConvolveMatrix1457-1" divisor="2" kernelMatrix="2 0 0 0 4 0 0 0 -2" order="3 3" result="result9" targetX="2" targetY="2"/><feComposite id="feComposite1459-8" in="result9" in2="fbSourceGraphic" operator="atop" result="result10"/><feBlend id="feBlend1461-7" in2="result10" mode="darken" result="fbSourceGraphic"/><feGaussianBlur id="feGaussianBlur1463-9" in="fbSourceGraphic" result="result0" stdDeviation="5"/><feSpecularLighting id="feSpecularLighting1465-2" in="result0" lighting-color="#f2d76c" result="result1" specularConstant="1" specularExponent="25" surfaceScale="5"><feDistantLight id="feDistantLight1467-0" azimuth="235" elevation="60"/></feSpecularLighting><feComposite id="feComposite1469-2" in="result1" in2="fbSourceGraphic" operator="in" result="result2"/><feComposite id="feComposite1471-3" in="fbSourceGraphic" in2="result2" k1="0" k2="1" k3="1" k4="0" operator="arithmetic" result="fbSourceGraphic"/><feColorMatrix id="feColorMatrix1513-7" in="fbSourceGraphic" result="fbSourceGraphicAlpha" values="0 0 0 -1 0 0 0 0 -1 0 0 0 0 -1 0 0 0 0 1 0"/><feTurbulence id="feTurbulence1515-5" baseFrequency="1" numOctaves="3" result="result1" seed="50" type="fractalNoise"/><feColorMatrix id="feColorMatrix1517-9" in="fbSourceGraphic" result="result0" type="luminanceToAlpha"/><feColorMatrix id="feColorMatrix1519-2" result="result2" values="1 0 0 0 0 0 1 0 0 0 0 0 1 0 0 0 0 0 0.5 0"/><feComposite id="feComposite1521-2" in="result1" in2="result2" operator="over" result="result3"/><feColorMatrix id="feColorMatrix1523-8" result="result91" values="1 0 0 0 0 0 1 0 0 0 0 0 1 0 0 0 0 0 5 -3.2"/><feComposite id="feComposite1525-9" in2="result91" k1="1.5" k2="0" k3="0" k4="0" operator="arithmetic" result="result93"/><feComposite id="feComposite1527-7" in="fbSourceGraphic" in2="result93" operator="out" result="result4"/><feComposite id="feComposite1529-3" in2="result4" k1="1" k2=".5" k3="0" k4="0" operator="arithmetic" result="result94"/><feDisplacementMap id="feDisplacementMap1531-6" in2="result1" result="result92" scale="15" xChannelSelector="R" yChannelSelector="A"/></filter><filter style="color-interpolation-filters:sRGB" id="filter1491-1" width="1.2" height="1.2" x="-.1" y="-.1"><feTurbulence id="feTurbulence1473-2" baseFrequency="1" numOctaves="3" result="result1" seed="50" type="fractalNoise"/><feColorMatrix id="feColorMatrix1475-9" in="SourceGraphic" result="result0" type="luminanceToAlpha"/><feColorMatrix id="feColorMatrix1477-3" result="result2" values="1 0 0 0 0 0 1 0 0 0 0 0 1 0 0 0 0 0 0.5 0"/><feComposite id="feComposite1479-1" in="result1" in2="result2" operator="over" result="result3"/><feColorMatrix id="feColorMatrix1481-9" result="result91" values="1 0 0 0 0 0 1 0 0 0 0 0 1 0 0 0 0 0 5 -3.2"/><feComposite id="feComposite1483-4" in2="result91" k1="1.5" k2="0" k3="0" k4="0" operator="arithmetic" result="result93"/><feComposite id="feComposite1485-7" in="SourceGraphic" in2="result93" operator="out" result="result4"/><feComposite id="feComposite1487-8" in2="result4" k1="1" k2=".5" k3="0" k4="0" operator="arithmetic"/><feDisplacementMap id="feDisplacementMap1489-4" in2="result1" result="result92" scale="15" xChannelSelector="R" yChannelSelector="A"/></filter><filter style="color-interpolation-filters:sRGB" id="filter1511-5" width="1.2" height="1.2" x="-.1" y="-.1"><feTurbulence id="feTurbulence1493-0" baseFrequency="1" numOctaves="3" result="result1" seed="50" type="fractalNoise"/><feColorMatrix id="feColorMatrix1495-3" in="SourceGraphic" result="result0" type="luminanceToAlpha"/><feColorMatrix id="feColorMatrix1497-6" result="result2" values="1 0 0 0 0 0 1 0 0 0 0 0 1 0 0 0 0 0 0.5 0"/><feComposite id="feComposite1499-1" in="result1" in2="result2" operator="over" result="result3"/><feColorMatrix id="feColorMatrix1501-0" result="result91" values="1 0 0 0 0 0 1 0 0 0 0 0 1 0 0 0 0 0 5 -3.2"/><feComposite id="feComposite1503-6" in2="result91" k1="1.5" k2="0" k3="0" k4="0" operator="arithmetic" result="result93"/><feComposite id="feComposite1505-3" in="SourceGraphic" in2="result93" operator="out" result="result4"/><feComposite id="feComposite1507-2" in2="result4" k1="1" k2=".5" k3="0" k4="0" operator="arithmetic"/><feDisplacementMap id="feDisplacementMap1509-0" in2="result1" result="result92" scale="15" xChannelSelector="R" yChannelSelector="A"/></filter><filter style="color-interpolation-filters:sRGB" id="filter1741-7"><feColorMatrix id="feColorMatrix1739-65" result="fbSourceGraphic" values="1 0 0 0 0 0 1 0 0 0 0 0 1 0 0 0 0 0 1000 -500"/><feColorMatrix id="feColorMatrix1743-6" in="fbSourceGraphic" result="fbSourceGraphicAlpha" values="0 0 0 -1 0 0 0 0 -1 0 0 0 0 -1 0 0 0 0 1 0"/><feTurbulence id="feTurbulence1745-9" baseFrequency=".143" numOctaves="5" type="fractalNoise"/><feColorMatrix id="feColorMatrix1747-37" result="result1" values="1 0 0 0 0 0 1 0 0 0 0 0 1 0 0 0 0 0 5 -3"/><feComposite id="feComposite1749-4" in2="fbSourceGraphicAlpha" operator="in"/><feMorphology id="feMorphology1751-5" operator="dilate" radius="2.7" result="result3"/><feTurbulence id="feTurbulence1753-25" baseFrequency=".121" numOctaves="2" result="result91"/><feDisplacementMap id="feDisplacementMap1755-4" in="result3" in2="result91" result="result4" scale="10" xChannelSelector="R" yChannelSelector="A"/><feFlood id="feFlood1757-7" flood-color="#FFF" flood-opacity="1" result="result92"/><feComposite id="feComposite1759-4" in2="result4" operator="in" result="result2"/><feComposite id="feComposite1761-4" in="result2" in2="fbSourceGraphic" operator="over"/></filter><filter style="color-interpolation-filters:sRGB" id="filter1423-3" width="1.2" height="1.2" x="-.1" y="-.1"><feColorMatrix id="feColorMatrix1421-0" result="fbSourceGraphic" values="1 0 0 0 0 0 1 0 0 0 0 0 1 0 0 0 0 0 1000 -500"/><feColorMatrix id="feColorMatrix1445-7" in="fbSourceGraphic" result="fbSourceGraphicAlpha" values="0 0 0 -1 0 0 0 0 -1 0 0 0 0 -1 0 0 0 0 1 0"/><feGaussianBlur id="feGaussianBlur1447-8" in="fbSourceGraphic" result="result8" stdDeviation="3"/><feTurbulence id="feTurbulence1449-6" baseFrequency="0.03 0.03" numOctaves="8" result="result7" seed="77" type="fractalNoise"/><feColorMatrix id="feColorMatrix1451-8" result="result5" values="1 0 0 0 0 0 1 0 0 0 0 0 1 0 0 0 0 0 1.6 -0.6"/><feComposite id="feComposite1453-8" in="result7" in2="result8" operator="in" result="result6"/><feDisplacementMap id="feDisplacementMap1455-4" in="result5" in2="result6" result="result4" scale="60" xChannelSelector="A" yChannelSelector="A"/><feConvolveMatrix id="feConvolveMatrix1457-3" divisor="2" kernelMatrix="2 0 0 0 4 0 0 0 -2" order="3 3" result="result9" targetX="2" targetY="2"/><feComposite id="feComposite1459-1" in="result9" in2="fbSourceGraphic" operator="atop" result="result10"/><feBlend id="feBlend1461-4" in2="result10" mode="darken" result="fbSourceGraphic"/><feGaussianBlur id="feGaussianBlur1463-92" in="fbSourceGraphic" result="result0" stdDeviation="5"/><feSpecularLighting id="feSpecularLighting1465-0" in="result0" lighting-color="#f2d76c" result="result1" specularConstant="1" specularExponent="25" surfaceScale="5"><feDistantLight id="feDistantLight1467-6" azimuth="235" elevation="60"/></feSpecularLighting><feComposite id="feComposite1469-8" in="result1" in2="fbSourceGraphic" operator="in" result="result2"/><feComposite id="feComposite1471-9" in="fbSourceGraphic" in2="result2" k1="0" k2="1" k3="1" k4="0" operator="arithmetic" result="fbSourceGraphic"/><feColorMatrix id="feColorMatrix1513-2" in="fbSourceGraphic" result="fbSourceGraphicAlpha" values="0 0 0 -1 0 0 0 0 -1 0 0 0 0 -1 0 0 0 0 1 0"/><feTurbulence id="feTurbulence1515-6" baseFrequency="1" numOctaves="3" result="result1" seed="50" type="fractalNoise"/><feColorMatrix id="feColorMatrix1517-6" in="fbSourceGraphic" result="result0" type="luminanceToAlpha"/><feColorMatrix id="feColorMatrix1519-4" result="result2" values="1 0 0 0 0 0 1 0 0 0 0 0 1 0 0 0 0 0 0.5 0"/><feComposite id="feComposite1521-9" in="result1" in2="result2" operator="over" result="result3"/><feColorMatrix id="feColorMatrix1523-5" result="result91" values="1 0 0 0 0 0 1 0 0 0 0 0 1 0 0 0 0 0 5 -3.2"/><feComposite id="feComposite1525-0" in2="result91" k1="1.5" k2="0" k3="0" k4="0" operator="arithmetic" result="result93"/><feComposite id="feComposite1527-4" in="fbSourceGraphic" in2="result93" operator="out" result="result4"/><feComposite id="feComposite1529-8" in2="result4" k1="1" k2=".5" k3="0" k4="0" operator="arithmetic" result="result94"/><feDisplacementMap id="feDisplacementMap1531-7" in2="result1" result="result92" scale="15" xChannelSelector="R" yChannelSelector="A"/></filter><filter style="color-interpolation-filters:sRGB" id="filter1491-17" width="1.2" height="1.2" x="-.1" y="-.1"><feTurbulence id="feTurbulence1473-27" baseFrequency="1" numOctaves="3" result="result1" seed="50" type="fractalNoise"/><feColorMatrix id="feColorMatrix1475-2" in="SourceGraphic" result="result0" type="luminanceToAlpha"/><feColorMatrix id="feColorMatrix1477-2" result="result2" values="1 0 0 0 0 0 1 0 0 0 0 0 1 0 0 0 0 0 0.5 0"/><feComposite id="feComposite1479-6" in="result1" in2="result2" operator="over" result="result3"/><feColorMatrix id="feColorMatrix1481-1" result="result91" values="1 0 0 0 0 0 1 0 0 0 0 0 1 0 0 0 0 0 5 -3.2"/><feComposite id="feComposite1483-0" in2="result91" k1="1.5" k2="0" k3="0" k4="0" operator="arithmetic" result="result93"/><feComposite id="feComposite1485-6" in="SourceGraphic" in2="result93" operator="out" result="result4"/><feComposite id="feComposite1487-1" in2="result4" k1="1" k2=".5" k3="0" k4="0" operator="arithmetic"/><feDisplacementMap id="feDisplacementMap1489-5" in2="result1" result="result92" scale="15" xChannelSelector="R" yChannelSelector="A"/></filter><filter style="color-interpolation-filters:sRGB" id="filter1511-9" width="1.2" height="1.2" x="-.1" y="-.1"><feTurbulence id="feTurbulence1493-4" baseFrequency="1" numOctaves="3" result="result1" seed="50" type="fractalNoise"/><feColorMatrix id="feColorMatrix1495-9" in="SourceGraphic" result="result0" type="luminanceToAlpha"/><feColorMatrix id="feColorMatrix1497-0" result="result2" values="1 0 0 0 0 0 1 0 0 0 0 0 1 0 0 0 0 0 0.5 0"/><feComposite id="feComposite1499-9" in="result1" in2="result2" operator="over" result="result3"/><feColorMatrix id="feColorMatrix1501-1" result="result91" values="1 0 0 0 0 0 1 0 0 0 0 0 1 0 0 0 0 0 5 -3.2"/><feComposite id="feComposite1503-7" in2="result91" k1="1.5" k2="0" k3="0" k4="0" operator="arithmetic" result="result93"/><feComposite id="feComposite1505-7" in="SourceGraphic" in2="result93" operator="out" result="result4"/><feComposite id="feComposite1507-1" in2="result4" k1="1" k2=".5" k3="0" k4="0" operator="arithmetic"/><feDisplacementMap id="feDisplacementMap1509-1" in2="result1" result="result92" scale="15" xChannelSelector="R" yChannelSelector="A"/></filter></defs><style id="style1159" type="text/css">.st0{fill:#ffeedc}.st1{fill:#f99338}.st2{fill:#ffa45a}.st3{fill:#fc9d4f}</style><g id="g4944" transform="matrix(0.47039936,0,0,0.4862967,752.22419,535.76257)"><g id="layer102" transform="translate(-618.7312,-486.12569)"><circle style="fill:#ffeedc;filter:url(#filter1741)" id="circle1161" cx="1000" cy="1000" r="1000" class="st0"/><path style="fill:#f99338;filter:url(#filter1423)" id="path1163" d="m 1068.9,1010.5 c -80.8,4.6 -174.8,0.9 -262.9,-9.4 -272.3,-32.2 -469.7,-124.6 -521.4,-244 -4.4,-10 -7.3,-14.3 -8.5,-11.2 -1.8,5.5 -17.6,137.9 -22.6,189.9 -4.7,49.2 -4.7,160.1 0,196 13.5,103.6 45.8,174.7 108.4,238.2 106.3,108.2 293.1,173.2 545.4,189.9 79.3,5.2 271.4,2.4 300.5,-4.3 l 6.5,-1.5 v -309.9 c 10.6,-82 21.3,-164 31.9,-246 -26.9,2.7 -121.4,9.3 -177.3,12.3 z" class="st1"/><path style="fill:#ffa45a;filter:url(#filter1491)" id="path1165" d="m 1746.5,858.9 c -3.5,-32.8 0.5549,-81.09804 -1.2451,-82.89804 -0.3,-0.6 -154.7549,-5.50196 -328.0549,-5.20196 l -314.9,0.9 76.7,112.4 c 42.3,61.7 92.9569,120.0529 91.4569,120.3529 -10.9,82.3 -19.4491,456.3667 -30.3491,538.6667 L 1513.9176,1494.1 c 198.9371,-35.6153 234.0412,-128.351 234.9412,-131.051 2.6,-7.9 -9.1588,-213.049 -4.1588,-264.749 6.2,-63.8 7.1,-189.3 1.8,-239.4 z m -333.9,309.6 c -6.5,3 -17,5.8 -23.5,5.8 -57,0 -78.4,-79 -29.7,-109.7 19.7,-12.5 45.2,-10.3 64.9,5.2 10,7.9 22,31.9 22,44.4 0,22.7 -13.8,45.1 -33.7,54.3 z m 146.2,-170.8 c -8.8,4.6 -17.9,6.4 -31.1,6.4 -69,0 -101,-86.3 -49.6,-134.3 35.2,-32.8 93.1,-21.3 116,23.4 5,9.4 6.5,17.6 6.5,34.9 -0.1,33.8 -12.7,54.4 -41.8,69.6 z m 83.7,143.1 c -18.5,11.5 -44.9,5.8 -53.8,-12.2 -5.6,-11.5 -5.6,-33.1 0.3,-41.9 14.4,-21.3 49.3,-20.7 64,1.2 11.6,17.1 6.6,42 -10.5,52.9 z" class="st2"/><path style="fill:#fc9d4f;filter:url(#filter1511)" id="path1167" d="M 897.1,962.5 C 618.9,946.1 382.8,854.9 329.9,744 c -8.2,-17.3 -9.7,-23.7 -9.7,-42.2 0,-18.5 1.5,-24.9 9.7,-42.2 46.4,-97.2 227.9,-179.3 465.8,-209.6 103.7,-13.4 250.5,-16.4 337.8,-6.7 202.7,22.2 381.8,78.4 492,154.7 32.9,22.8 73.4,65.9 84.6,90.2 5,10.9 9.7,22.8 10.9,26.4 l 1.8,7 -354.2,0.6 -354.2,0.9 79.9,116.4 c 43.8,64.1 79,117 78.4,117.3 -6,5.1 -212.8,9.3 -275.6,5.7 z m 99.8,-72.7 c 22.6,-9.4 21.7,-24 -2.1,-33.4 -30.5,-12.2 -83.1,-2.7 -83.1,14.9 0,8.5 7.6,16.7 19.4,20.4 15,4.5 52.9,3.3 65.8,-1.9 z M 633.6,815.7 c 9.4,-3.6 21.7,-11.2 27.3,-17 13.8,-14.6 13.5,-25.5 -1.2,-40.7 -30.5,-31.9 -119.8,-32.8 -151.9,-1.8 -24.4,24 -2.6,55 46.1,65.6 20.4,4.5 60.3,1.5 79.7,-6.1 z m 421.2,-181.4 c 15,-7.3 15.3,-17.9 0.9,-26.4 -14.7,-9.1 -64.6,-10.6 -79,-2.7 -14.4,7.9 -17.6,14.3 -10.6,22.2 13.5,15.1 64.3,19.4 88.7,6.9 z m 241.7,0 c 21.4,-7.3 35.2,-21 35.2,-35.5 0,-13.7 -8.8,-23.7 -28.8,-33.1 -19.4,-8.8 -63.7,-10.9 -87.5,-3.6 -20.9,6.1 -39.4,23.4 -39.4,36.5 0,11.5 18.5,29.2 37,35.5 19.8,6.9 63.6,6.9 83.5,0.2 z M 794.3,589 c 16.7,-5.2 35.2,-21.6 35.2,-31.6 0,-3.9 -4.4,-11.2 -10.3,-17 -27.6,-26.7 -103.1,-29.2 -136.3,-3.9 -10,7.3 -12,10.6 -12,19.1 0,17.9 24.1,33.7 60.2,39.5 13.8,2.1 47.3,-1.2 63.2,-6.1 z" class="st3"/></g><g id="layer102-6" transform="translate(-24.57627,199.17627)"><circle style="fill:#ffeedc;filter:url(#filter1741-3)" id="circle1161-1" cx="1000" cy="1000" r="1000" class="st0"/><path style="fill:#f99338;filter:url(#filter1423-0)" id="path1163-5" d="m 1068.9,1010.5 c -80.8,4.6 -174.8,0.9 -262.9,-9.4 -272.3,-32.2 -469.7,-124.6 -521.4,-244 -4.4,-10 -7.3,-14.3 -8.5,-11.2 -1.8,5.5 -17.6,137.9 -22.6,189.9 -4.7,49.2 -4.7,160.1 0,196 13.5,103.6 45.8,174.7 108.4,238.2 106.3,108.2 293.1,173.2 545.4,189.9 79.3,5.2 271.4,2.4 300.5,-4.3 l 6.5,-1.5 v -309.9 c 10.6,-82 21.3,-164 31.9,-246 -26.9,2.7 -121.4,9.3 -177.3,12.3 z" class="st1"/><path style="fill:#ffa45a;filter:url(#filter1491-1)" id="path1165-5" d="m 1746.5,858.9 c -3.5,-32.8 0.5549,-81.09804 -1.2451,-82.89804 -0.3,-0.6 -154.7549,-5.50196 -328.0549,-5.20196 l -314.9,0.9 76.7,112.4 c 42.3,61.7 92.9569,120.0529 91.4569,120.3529 -10.9,82.3 -19.4491,456.3667 -30.3491,538.6667 L 1513.9176,1494.1 c 198.9371,-35.6153 234.0412,-128.351 234.9412,-131.051 2.6,-7.9 -9.1588,-213.049 -4.1588,-264.749 6.2,-63.8 7.1,-189.3 1.8,-239.4 z m -333.9,309.6 c -6.5,3 -17,5.8 -23.5,5.8 -57,0 -78.4,-79 -29.7,-109.7 19.7,-12.5 45.2,-10.3 64.9,5.2 10,7.9 22,31.9 22,44.4 0,22.7 -13.8,45.1 -33.7,54.3 z m 146.2,-170.8 c -8.8,4.6 -17.9,6.4 -31.1,6.4 -69,0 -101,-86.3 -49.6,-134.3 35.2,-32.8 93.1,-21.3 116,23.4 5,9.4 6.5,17.6 6.5,34.9 -0.1,33.8 -12.7,54.4 -41.8,69.6 z m 83.7,143.1 c -18.5,11.5 -44.9,5.8 -53.8,-12.2 -5.6,-11.5 -5.6,-33.1 0.3,-41.9 14.4,-21.3 49.3,-20.7 64,1.2 11.6,17.1 6.6,42 -10.5,52.9 z" class="st2"/><path style="fill:#fc9d4f;filter:url(#filter1511-5)" id="path1167-4" d="M 897.1,962.5 C 618.9,946.1 382.8,854.9 329.9,744 c -8.2,-17.3 -9.7,-23.7 -9.7,-42.2 0,-18.5 1.5,-24.9 9.7,-42.2 46.4,-97.2 227.9,-179.3 465.8,-209.6 103.7,-13.4 250.5,-16.4 337.8,-6.7 202.7,22.2 381.8,78.4 492,154.7 32.9,22.8 73.4,65.9 84.6,90.2 5,10.9 9.7,22.8 10.9,26.4 l 1.8,7 -354.2,0.6 -354.2,0.9 79.9,116.4 c 43.8,64.1 79,117 78.4,117.3 -6,5.1 -212.8,9.3 -275.6,5.7 z m 99.8,-72.7 c 22.6,-9.4 21.7,-24 -2.1,-33.4 -30.5,-12.2 -83.1,-2.7 -83.1,14.9 0,8.5 7.6,16.7 19.4,20.4 15,4.5 52.9,3.3 65.8,-1.9 z M 633.6,815.7 c 9.4,-3.6 21.7,-11.2 27.3,-17 13.8,-14.6 13.5,-25.5 -1.2,-40.7 -30.5,-31.9 -119.8,-32.8 -151.9,-1.8 -24.4,24 -2.6,55 46.1,65.6 20.4,4.5 60.3,1.5 79.7,-6.1 z m 421.2,-181.4 c 15,-7.3 15.3,-17.9 0.9,-26.4 -14.7,-9.1 -64.6,-10.6 -79,-2.7 -14.4,7.9 -17.6,14.3 -10.6,22.2 13.5,15.1 64.3,19.4 88.7,6.9 z m 241.7,0 c 21.4,-7.3 35.2,-21 35.2,-35.5 0,-13.7 -8.8,-23.7 -28.8,-33.1 -19.4,-8.8 -63.7,-10.9 -87.5,-3.6 -20.9,6.1 -39.4,23.4 -39.4,36.5 0,11.5 18.5,29.2 37,35.5 19.8,6.9 63.6,6.9 83.5,0.2 z M 794.3,589 c 16.7,-5.2 35.2,-21.6 35.2,-31.6 0,-3.9 -4.4,-11.2 -10.3,-17 -27.6,-26.7 -103.1,-29.2 -136.3,-3.9 -10,7.3 -12,10.6 -12,19.1 0,17.9 24.1,33.7 60.2,39.5 13.8,2.1 47.3,-1.2 63.2,-6.1 z" class="st3"/></g><g id="layer102-5" transform="translate(-1150.9312,209.07431)"><circle style="fill:#ffeedc;filter:url(#filter1741-7)" id="circle1161-9" cx="1000" cy="1000" r="1000" class="st0"/><path style="fill:#f99338;filter:url(#filter1423-3)" id="path1163-7" d="m 1068.9,1010.5 c -80.8,4.6 -174.8,0.9 -262.9,-9.4 -272.3,-32.2 -469.7,-124.6 -521.4,-244 -4.4,-10 -7.3,-14.3 -8.5,-11.2 -1.8,5.5 -17.6,137.9 -22.6,189.9 -4.7,49.2 -4.7,160.1 0,196 13.5,103.6 45.8,174.7 108.4,238.2 106.3,108.2 293.1,173.2 545.4,189.9 79.3,5.2 271.4,2.4 300.5,-4.3 l 6.5,-1.5 v -309.9 c 10.6,-82 21.3,-164 31.9,-246 -26.9,2.7 -121.4,9.3 -177.3,12.3 z" class="st1"/><path style="fill:#ffa45a;filter:url(#filter1491-17)" id="path1165-7" d="m 1746.5,858.9 c -3.5,-32.8 0.5549,-81.09804 -1.2451,-82.89804 -0.3,-0.6 -154.7549,-5.50196 -328.0549,-5.20196 l -314.9,0.9 76.7,112.4 c 42.3,61.7 92.9569,120.0529 91.4569,120.3529 -10.9,82.3 -19.4491,456.3667 -30.3491,538.6667 L 1513.9176,1494.1 c 198.9371,-35.6153 234.0412,-128.351 234.9412,-131.051 2.6,-7.9 -9.1588,-213.049 -4.1588,-264.749 6.2,-63.8 7.1,-189.3 1.8,-239.4 z m -333.9,309.6 c -6.5,3 -17,5.8 -23.5,5.8 -57,0 -78.4,-79 -29.7,-109.7 19.7,-12.5 45.2,-10.3 64.9,5.2 10,7.9 22,31.9 22,44.4 0,22.7 -13.8,45.1 -33.7,54.3 z m 146.2,-170.8 c -8.8,4.6 -17.9,6.4 -31.1,6.4 -69,0 -101,-86.3 -49.6,-134.3 35.2,-32.8 93.1,-21.3 116,23.4 5,9.4 6.5,17.6 6.5,34.9 -0.1,33.8 -12.7,54.4 -41.8,69.6 z m 83.7,143.1 c -18.5,11.5 -44.9,5.8 -53.8,-12.2 -5.6,-11.5 -5.6,-33.1 0.3,-41.9 14.4,-21.3 49.3,-20.7 64,1.2 11.6,17.1 6.6,42 -10.5,52.9 z" class="st2"/><path style="fill:#fc9d4f;filter:url(#filter1511-9)" id="path1167-6" d="M 897.1,962.5 C 618.9,946.1 382.8,854.9 329.9,744 c -8.2,-17.3 -9.7,-23.7 -9.7,-42.2 0,-18.5 1.5,-24.9 9.7,-42.2 46.4,-97.2 227.9,-179.3 465.8,-209.6 103.7,-13.4 250.5,-16.4 337.8,-6.7 202.7,22.2 381.8,78.4 492,154.7 32.9,22.8 73.4,65.9 84.6,90.2 5,10.9 9.7,22.8 10.9,26.4 l 1.8,7 -354.2,0.6 -354.2,0.9 79.9,116.4 c 43.8,64.1 79,117 78.4,117.3 -6,5.1 -212.8,9.3 -275.6,5.7 z m 99.8,-72.7 c 22.6,-9.4 21.7,-24 -2.1,-33.4 -30.5,-12.2 -83.1,-2.7 -83.1,14.9 0,8.5 7.6,16.7 19.4,20.4 15,4.5 52.9,3.3 65.8,-1.9 z M 633.6,815.7 c 9.4,-3.6 21.7,-11.2 27.3,-17 13.8,-14.6 13.5,-25.5 -1.2,-40.7 -30.5,-31.9 -119.8,-32.8 -151.9,-1.8 -24.4,24 -2.6,55 46.1,65.6 20.4,4.5 60.3,1.5 79.7,-6.1 z m 421.2,-181.4 c 15,-7.3 15.3,-17.9 0.9,-26.4 -14.7,-9.1 -64.6,-10.6 -79,-2.7 -14.4,7.9 -17.6,14.3 -10.6,22.2 13.5,15.1 64.3,19.4 88.7,6.9 z m 241.7,0 c 21.4,-7.3 35.2,-21 35.2,-35.5 0,-13.7 -8.8,-23.7 -28.8,-33.1 -19.4,-8.8 -63.7,-10.9 -87.5,-3.6 -20.9,6.1 -39.4,23.4 -39.4,36.5 0,11.5 18.5,29.2 37,35.5 19.8,6.9 63.6,6.9 83.5,0.2 z M 794.3,589 c 16.7,-5.2 35.2,-21.6 35.2,-31.6 0,-3.9 -4.4,-11.2 -10.3,-17 -27.6,-26.7 -103.1,-29.2 -136.3,-3.9 -10,7.3 -12,10.6 -12,19.1 0,17.9 24.1,33.7 60.2,39.5 13.8,2.1 47.3,-1.2 63.2,-6.1 z" class="st3"/></g></g></svg>