<?xml version="1.0" encoding="UTF-8" standalone="no"?>
<svg
   xmlns:dc="http://purl.org/dc/elements/1.1/"
   xmlns:cc="http://creativecommons.org/ns#"
   xmlns:rdf="http://www.w3.org/1999/02/22-rdf-syntax-ns#"
   xmlns:svg="http://www.w3.org/2000/svg"
   xmlns="http://www.w3.org/2000/svg"
   xml:space="preserve"
   viewBox="0 0 2000 2000"
   version="1.1"
   y="0"
   style="enable-background:new 0 0 2000 2000"
   x="0"
   height="2000"
   width="2000"
   id="Layer_1"><metadata
     id="metadata1175"><rdf:RDF><cc:Work
         rdf:about=""><dc:format>image/svg+xml</dc:format><dc:type
           rdf:resource="http://purl.org/dc/dcmitype/StillImage" /><dc:title></dc:title></cc:Work></rdf:RDF></metadata><defs
     id="defs1173"><filter
       y="-0.1"
       height="1.2"
       x="-0.1"
       width="1.2"
       id="filter1423"
       style="color-interpolation-filters:sRGB;"><feColorMatrix
         result="fbSourceGraphic"
         id="feColorMatrix1421"
         values="1 0 0 0 0 0 1 0 0 0 0 0 1 0 0 0 0 0 1000 -500 " /><feColorMatrix
         id="feColorMatrix1445"
         values="0 0 0 -1 0 0 0 0 -1 0 0 0 0 -1 0 0 0 0 1 0"
         in="fbSourceGraphic"
         result="fbSourceGraphicAlpha" /><feGaussianBlur
         in="fbSourceGraphic"
         stdDeviation="3"
         result="result8"
         id="feGaussianBlur1447" /><feTurbulence
         seed="77"
         result="result7"
         type="fractalNoise"
         numOctaves="8"
         baseFrequency="0.03 0.03"
         id="feTurbulence1449" /><feColorMatrix
         result="result5"
         values="1 0 0 0 0 0 1 0 0 0 0 0 1 0 0 0 0 0 1.6 -0.6 "
         id="feColorMatrix1451" /><feComposite
         result="result6"
         in="result7"
         operator="in"
         id="feComposite1453"
         in2="result8" /><feDisplacementMap
         in="result5"
         xChannelSelector="A"
         yChannelSelector="A"
         scale="60"
         result="result4"
         id="feDisplacementMap1455"
         in2="result6" /><feConvolveMatrix
         result="result9"
         divisor="2"
         targetY="2"
         targetX="2"
         kernelMatrix="2 0 0 0 4 0 0 0 -2 "
         order="3 3"
         id="feConvolveMatrix1457" /><feComposite
         result="result10"
         in="result9"
         operator="atop"
         id="feComposite1459"
         in2="fbSourceGraphic" /><feBlend
         result="fbSourceGraphic"
         mode="darken"
         id="feBlend1461"
         in2="result10" /><feGaussianBlur
         stdDeviation="5"
         in="fbSourceGraphic"
         result="result0"
         id="feGaussianBlur1463" /><feSpecularLighting
         in="result0"
         result="result1"
         lighting-color="rgb(242,215,108)"
         surfaceScale="5"
         specularConstant="1"
         specularExponent="25"
         id="feSpecularLighting1465"><feDistantLight
           elevation="60"
           azimuth="235"
           id="feDistantLight1467" /></feSpecularLighting><feComposite
         in="result1"
         result="result2"
         operator="in"
         id="feComposite1469"
         in2="fbSourceGraphic" /><feComposite
         in="fbSourceGraphic"
         result="fbSourceGraphic"
         operator="arithmetic"
         k2="1"
         k3="1"
         id="feComposite1471"
         in2="result2" /><feColorMatrix
         id="feColorMatrix1513"
         values="0 0 0 -1 0 0 0 0 -1 0 0 0 0 -1 0 0 0 0 1 0"
         in="fbSourceGraphic"
         result="fbSourceGraphicAlpha" /><feTurbulence
         in="fbSourceGraphic"
         result="result1"
         numOctaves="3"
         baseFrequency="1"
         type="fractalNoise"
         seed="50"
         id="feTurbulence1515" /><feColorMatrix
         result="result0"
         in="fbSourceGraphic"
         type="luminanceToAlpha"
         id="feColorMatrix1517" /><feColorMatrix
         values="1 0 0 0 0 0 1 0 0 0 0 0 1 0 0 0 0 0 0.5 0 "
         result="result2"
         id="feColorMatrix1519" /><feComposite
         in="result1"
         operator="over"
         result="result3"
         id="feComposite1521"
         in2="result2" /><feColorMatrix
         values="1 0 0 0 0 0 1 0 0 0 0 0 1 0 0 0 0 0 5 -3.2"
         result="result91"
         id="feColorMatrix1523" /><feComposite
         result="result93"
         k1="1.5"
         operator="arithmetic"
         id="feComposite1525"
         in2="result91" /><feComposite
         result="result4"
         operator="out"
         in="fbSourceGraphic"
         id="feComposite1527"
         in2="result93" /><feComposite
         result="result94"
         k1="1"
         k2="0.5"
         operator="arithmetic"
         id="feComposite1529"
         in2="result4" /><feDisplacementMap
         result="result92"
         yChannelSelector="A"
         xChannelSelector="R"
         scale="15"
         id="feDisplacementMap1531"
         in2="result1" /></filter><filter
       id="filter1491"
       x="-0.1"
       y="-0.1"
       width="1.2"
       height="1.2"
       style="color-interpolation-filters:sRGB;"><feTurbulence
         id="feTurbulence1473"
         result="result1"
         numOctaves="3"
         baseFrequency="1"
         type="fractalNoise"
         seed="50" /><feColorMatrix
         id="feColorMatrix1475"
         result="result0"
         in="SourceGraphic"
         type="luminanceToAlpha" /><feColorMatrix
         id="feColorMatrix1477"
         values="1 0 0 0 0 0 1 0 0 0 0 0 1 0 0 0 0 0 0.5 0 "
         result="result2" /><feComposite
         id="feComposite1479"
         in2="result2"
         in="result1"
         operator="over"
         result="result3" /><feColorMatrix
         id="feColorMatrix1481"
         values="1 0 0 0 0 0 1 0 0 0 0 0 1 0 0 0 0 0 5 -3.2"
         result="result91" /><feComposite
         id="feComposite1483"
         result="result93"
         k1="1.5"
         operator="arithmetic"
         in2="result91" /><feComposite
         id="feComposite1485"
         result="result4"
         operator="out"
         in="SourceGraphic"
         in2="result93" /><feComposite
         id="feComposite1487"
         k1="1"
         k2="0.5"
         operator="arithmetic"
         in2="result4" /><feDisplacementMap
         id="feDisplacementMap1489"
         result="result92"
         in2="result1"
         yChannelSelector="A"
         xChannelSelector="R"
         scale="15" /></filter><filter
       id="filter1511"
       x="-0.1"
       y="-0.1"
       width="1.2"
       height="1.2"
       style="color-interpolation-filters:sRGB;"><feTurbulence
         id="feTurbulence1493"
         result="result1"
         numOctaves="3"
         baseFrequency="1"
         type="fractalNoise"
         seed="50" /><feColorMatrix
         id="feColorMatrix1495"
         result="result0"
         in="SourceGraphic"
         type="luminanceToAlpha" /><feColorMatrix
         id="feColorMatrix1497"
         values="1 0 0 0 0 0 1 0 0 0 0 0 1 0 0 0 0 0 0.5 0 "
         result="result2" /><feComposite
         id="feComposite1499"
         in2="result2"
         in="result1"
         operator="over"
         result="result3" /><feColorMatrix
         id="feColorMatrix1501"
         values="1 0 0 0 0 0 1 0 0 0 0 0 1 0 0 0 0 0 5 -3.2"
         result="result91" /><feComposite
         id="feComposite1503"
         result="result93"
         k1="1.5"
         operator="arithmetic"
         in2="result91" /><feComposite
         id="feComposite1505"
         result="result4"
         operator="out"
         in="SourceGraphic"
         in2="result93" /><feComposite
         id="feComposite1507"
         k1="1"
         k2="0.5"
         operator="arithmetic"
         in2="result4" /><feDisplacementMap
         id="feDisplacementMap1509"
         result="result92"
         in2="result1"
         yChannelSelector="A"
         xChannelSelector="R"
         scale="15" /></filter><filter
       id="filter1741"
       style="color-interpolation-filters:sRGB;"><feColorMatrix
         result="fbSourceGraphic"
         id="feColorMatrix1739"
         values="1 0 0 0 0 0 1 0 0 0 0 0 1 0 0 0 0 0 1000 -500 " /><feColorMatrix
         id="feColorMatrix1743"
         values="0 0 0 -1 0 0 0 0 -1 0 0 0 0 -1 0 0 0 0 1 0"
         in="fbSourceGraphic"
         result="fbSourceGraphicAlpha" /><feTurbulence
         in="fbSourceGraphic"
         baseFrequency="0.143"
         numOctaves="5"
         type="fractalNoise"
         id="feTurbulence1745" /><feColorMatrix
         result="result1"
         values="1 0 0 0 0 0 1 0 0 0 0 0 1 0 0 0 0 0 5 -3"
         id="feColorMatrix1747" /><feComposite
         operator="in"
         id="feComposite1749"
         in2="fbSourceGraphicAlpha" /><feMorphology
         result="result3"
         radius="2.7"
         operator="dilate"
         id="feMorphology1751" /><feTurbulence
         result="result91"
         baseFrequency="0.121"
         numOctaves="2"
         id="feTurbulence1753" /><feDisplacementMap
         result="result4"
         scale="10"
         yChannelSelector="A"
         xChannelSelector="R"
         in="result3"
         id="feDisplacementMap1755"
         in2="result91" /><feFlood
         result="result92"
         flood-color="rgb(255,255,255)"
         flood-opacity="1"
         id="feFlood1757" /><feComposite
         operator="in"
         result="result2"
         id="feComposite1759"
         in2="result4" /><feComposite
         operator="over"
         in="result2"
         id="feComposite1761"
         in2="fbSourceGraphic" /></filter></defs><style
     id="style1159"
     type="text/css">.st0{fill:#ffeedc}.st1{fill:#f99338}.st2{fill:#ffa45a}.st3{fill:#fc9d4f}</style><g
     id="layer102"><circle
       style="filter:url(#filter1741)"
       id="circle1161"
       class="st0"
       r="1000"
       cy="1000"
       cx="1000" /><path
       style="filter:url(#filter1423)"
       id="path1163"
       class="st1"
       d="M1068.9,1010.5c-80.8,4.6-174.8,0.9-262.9-9.4c-272.3-32.2-469.7-124.6-521.4-244c-4.4-10-7.3-14.3-8.5-11.2 c-1.8,5.5-17.6,137.9-22.6,189.9c-4.7,49.2-4.7,160.1,0,196c13.5,103.6,45.8,174.7,108.4,238.2 c106.3,108.2,293.1,173.2,545.4,189.9c79.3,5.2,271.4,2.4,300.5-4.3l6.5-1.5v-309.9c10.6-82,21.3-164,31.9-246 C1219.3,1000.9,1124.8,1007.5,1068.9,1010.5z" /><path
       style="fill:#ffa45a;filter:url(#filter1491)"
       id="path1165"
       class="st2"
       d="m 1746.5,858.9 c -3.5,-32.8 0.5549,-81.09804 -1.2451,-82.89804 -0.3,-0.6 -154.7549,-5.50196 -328.0549,-5.20196 l -314.9,0.9 76.7,112.4 c 42.3,61.7 92.9569,120.0529 91.4569,120.3529 -10.9,82.3 -19.4491,456.3667 -30.3491,538.6667 L 1513.9176,1494.1 c 198.9371,-35.6153 234.0412,-128.351 234.9412,-131.051 2.6,-7.9 -9.1588,-213.049 -4.1588,-264.749 6.2,-63.8 7.1,-189.3 1.8,-239.4 z m -333.9,309.6 c -6.5,3 -17,5.8 -23.5,5.8 -57,0 -78.4,-79 -29.7,-109.7 19.7,-12.5 45.2,-10.3 64.9,5.2 10,7.9 22,31.9 22,44.4 0,22.7 -13.8,45.1 -33.7,54.3 z m 146.2,-170.8 c -8.8,4.6 -17.9,6.4 -31.1,6.4 -69,0 -101,-86.3 -49.6,-134.3 35.2,-32.8 93.1,-21.3 116,23.4 5,9.4 6.5,17.6 6.5,34.9 -0.1,33.8 -12.7,54.4 -41.8,69.6 z m 83.7,143.1 c -18.5,11.5 -44.9,5.8 -53.8,-12.2 -5.6,-11.5 -5.6,-33.1 0.3,-41.9 14.4,-21.3 49.3,-20.7 64,1.2 11.6,17.1 6.6,42 -10.5,52.9 z" /><path
       style="filter:url(#filter1511)"
       id="path1167"
       class="st3"
       d="M897.1,962.5C618.9,946.1,382.8,854.9,329.9,744c-8.2-17.3-9.7-23.7-9.7-42.2s1.5-24.9,9.7-42.2 c46.4-97.2,227.9-179.3,465.8-209.6c103.7-13.4,250.5-16.4,337.8-6.7c202.7,22.2,381.8,78.4,492,154.7 c32.9,22.8,73.4,65.9,84.6,90.2c5,10.9,9.7,22.8,10.9,26.4l1.8,7l-354.2,0.6l-354.2,0.9l79.9,116.4c43.8,64.1,79,117,78.4,117.3 C1166.7,961.9,959.9,966.1,897.1,962.5z M996.9,889.8c22.6-9.4,21.7-24-2.1-33.4c-30.5-12.2-83.1-2.7-83.1,14.9 c0,8.5,7.6,16.7,19.4,20.4C946.1,896.2,984,895,996.9,889.8z M633.6,815.7c9.4-3.6,21.7-11.2,27.3-17c13.8-14.6,13.5-25.5-1.2-40.7 c-30.5-31.9-119.8-32.8-151.9-1.8c-24.4,24-2.6,55,46.1,65.6C574.3,826.3,614.2,823.3,633.6,815.7z M1054.8,634.3 c15-7.3,15.3-17.9,0.9-26.4c-14.7-9.1-64.6-10.6-79-2.7s-17.6,14.3-10.6,22.2C979.6,642.5,1030.4,646.8,1054.8,634.3z M1296.5,634.3c21.4-7.3,35.2-21,35.2-35.5c0-13.7-8.8-23.7-28.8-33.1c-19.4-8.8-63.7-10.9-87.5-3.6c-20.9,6.1-39.4,23.4-39.4,36.5 c0,11.5,18.5,29.2,37,35.5C1232.8,641,1276.6,641,1296.5,634.3z M794.3,589c16.7-5.2,35.2-21.6,35.2-31.6c0-3.9-4.4-11.2-10.3-17 c-27.6-26.7-103.1-29.2-136.3-3.9c-10,7.3-12,10.6-12,19.1c0,17.9,24.1,33.7,60.2,39.5C744.9,597.2,778.4,593.9,794.3,589z" /></g></svg>