<?xml version="1.0" encoding="utf-8"?>
<!-- Generator: Adobe Illustrator 24.0.1, SVG Export Plug-In . SVG Version: 6.00 Build 0)  -->
<svg version="1.1" id="Layer_1" xmlns="http://www.w3.org/2000/svg" xmlns:xlink="http://www.w3.org/1999/xlink" x="0px" y="0px"
	 width="1000px" height="1000px" viewBox="0 0 1000 1000" style="enable-background:new 0 0 1000 1000;" xml:space="preserve">
<style type="text/css">
	.st0{fill:#ECECEC;}
	.st1{fill:#9E9E9E;}
	.st2{fill:#F8B69D;}
	.st3{opacity:0.43;fill:#D0D0CF;}
	.st4{fill:#D0D0CF;}
	.st5{fill:#D1433C;}
	.st6{fill:#B02929;}
	.st7{opacity:0.42;fill:#E48E77;}
	.st8{fill:#E4E4E4;}
	.st9{fill:#925B49;}
	.st10{fill:#939494;}
	.st11{opacity:0.11;fill:#E48E77;}
	.st12{fill:#F6C7B9;}
	.st13{fill:#F8F8F8;}
	.st14{fill:#D6D6D6;}
	.st15{fill:#D98875;}
	.st16{fill:#D07863;}
	.st17{fill:#F2CDC2;}
	.st18{fill:#989898;}
	.st19{fill:#EDA790;}
	.st20{fill:#F4CCC2;}
	.st21{fill:#FFFFFF;}
	.st22{fill:#EBCB98;}
	.st23{fill:url(#SVGID_1_);}
	.st24{fill:url(#SVGID_2_);}
	.st25{fill:url(#SVGID_3_);}
	.st26{fill:#E51813;}
	.st27{fill:#C41818;}
	.st28{fill:#FF7189;}
	.st29{fill:#A5402E;}
	.st30{fill:#8E3527;}
	.st31{fill:#BC583C;}
	.st32{fill:url(#SVGID_4_);}
	.st33{fill:#DB7427;}
	.st34{fill:#C6592A;}
	.st35{fill:#EDCD9C;}
	.st36{fill:#762A2C;}
	.st37{fill:#F0B012;}
	.st38{fill:#DE9E32;}
	.st39{fill:#F4D070;}
	.st40{fill:#FFDCAE;}
</style>
<g>
	<g>
		<g>
			<path class="st0" d="M672,825c-24.2-123.3-27.1-276.7-27.1-276.7c-14.6,17.1-62.3,122.1-62.3,122.1c-1.6,57,8.5,105.3,20.2,141.4
				C626,815.7,649.1,820.2,672,825z"/>
			<path class="st1" d="M205.5,461.6c0,0,57.4-28.1,108.6,24.4l-41.5,49.2C272.6,535.3,198.6,517.4,205.5,461.6z"/>
			<path class="st2" d="M222.6,514.1l9.8-58.6c0,0,35.4-9.8,51.3,7.3l-17.1,64.7L222.6,514.1z"/>
			<path class="st0" d="M402,530c0,0-63.5,58.6-128.2,80.6l-11-11L314.1,486c0,0-65.9,47.6-108.6-24.4c0,0-20.3,55.2-31.6,129.8
				c-8.5,56.1,37.5,105.6,94.1,101.1c38.5-3,81.8-13.8,118.2-41.8C386.1,650.8,421.6,560.5,402,530z"/>
			<path class="st3" d="M404.8,543.7c-17.9,40.6-40.1,79.4-67.1,114.6c-6.9,9-14,17.7-21.3,26.1c24.1-6.5,48.1-17,69.8-33.6
				c0,0,28.8-73.6,20.1-110.4C405.8,541.5,405.3,542.6,404.8,543.7z"/>
			<path class="st0" d="M408.8,791.8c49.3,0.7,98.3,5.3,146.9,12.4C588,671.3,655.9,528.8,655.9,528.8
				c-146.5-62.3-252.7-13.4-252.7-13.4c-23.7,103.2-26.7,206.7-24.9,276.6C388.5,791.7,398.6,791.7,408.8,791.8z"/>
			<polygon class="st4" points="561.9,536.1 655.9,528.8 591.2,504.3 			"/>
			<path class="st4" d="M508,798.1c3.1,0.3,6.2,0.7,9.3,1C530,748,551.8,671,588.8,565.4c0,0-37.8-14.6-69.6-20.8
				c0,0,45.2,13.4,59.8,20.8C579,565.4,532.2,693.1,508,798.1z"/>
			<g>
				<path class="st5" d="M496,528.8c0,0,13.4,87.9,40.3,114.7c0,0,7.3-42.7,1.2-70.8c-6.1-28.1-31.7-48.8-31.7-48.8L496,528.8z"/>
				<path class="st6" d="M536.8,640.3c1.5-10.4,5.8-44.1,0.7-67.6c-4.3-19.6-18-35.6-26-43.5C522.3,565.7,531.1,602.7,536.8,640.3z"
					/>
				<g>
					<path class="st5" d="M507,471.4c0,0-22,1.2-47.6,12.2l7.3,18.3l-12.2,7.3l11,8.5c0,0,9.8,6.1,28.1-1.2L507,471.4z"/>
					<path class="st6" d="M483.8,490.9l-9.8-7.3c0,0,9.8-2.4,17.1-2.4C498.5,481.1,493.6,483.6,483.8,490.9z"/>
					<path class="st6" d="M591.2,479.9l-26.9-8.5l-1.2,25.6C563.2,497,582.7,492.1,591.2,479.9z"/>
					<path class="st2" d="M503.3,455.5c0,0-4.9,39.1-6.1,53.7c-1.2,14.6,56.2,19.5,69.6,2.4l9.8-54.9
						C576.6,456.7,526.5,448.2,503.3,455.5z"/>
					<path class="st7" d="M516.8,483.2c12.9,1.3,25.9,1.2,38.8-0.2c5.7-0.9,11.3-2,16.8-3.4l4.1-22.9c0,0-50-8.5-73.2-1.2
						c0,0-1.4,11-2.8,23.5C505.8,480.7,511.2,482.2,516.8,483.2z"/>
					<g>
						<path class="st8" d="M508.9,156.6c0,0-46.3,4.7-55.6-34.1s47.1-82.1,91.4-71.2c0,0,108.8-62,146.6,54.9
							c0,0,47.5,8.3,39.2,55.8c-8.3,47.5-72.1,36.4-72.1,36.4L508.9,156.6z"/>
						<path class="st0" d="M524.7,154.1c-23.7-4.1-42.6-21.9-44.2-46.7c-1.3-21.7,11.4-40.1,27-54.2c-32.9,10.3-61.1,41-54.3,69.3
							c9.3,38.8,55.6,34.1,55.6,34.1l15.1,4.2C524.2,158.5,524.5,156.3,524.7,154.1z"/>
						<path class="st0" d="M540.8,85.2c-1.3-0.5-3.1-1-5.6-1.6c1,0.2,2,0.7,2.9,1C539,84.8,539.9,85,540.8,85.2z"/>
						<path class="st9" d="M642.6,265.6c0,0-5.9,46.6-12.7,63.1c-6.8,16.5-27.6,53.8,1.5,74.9c0,0-24,13-34.1-23.4
							c-10.1-36.3,9.9-125.7,9.9-125.7S638,251.1,642.6,265.6z"/>
						<path class="st7" d="M640.5,280c1.3-8.4,2-14.4,2-14.4c-4.5-14.5-35.4-11.1-35.4-11.1s-1.3,5.6-3,14.7
							C616.4,272.3,628.5,276,640.5,280z"/>
						<path class="st2" d="M608,331c0,0,12.4-19.9,29.7-14c17.3,6,6.7,56.8-34.9,57.3L608,331z"/>
						<path class="st10" d="M505.7,264.1c0,0-22.2-8.3-18.2-10c4-1.8,24.4-0.8,24.4-0.8L505.7,264.1z"/>
						<path class="st2" d="M503,253.6c0,0-51.1,84.6-70.1,179.7c0,0,62,57.5,162,26.7l25-192.1C619.8,267.9,579.9,214.6,503,253.6z"
							/>
						<path class="st7" d="M619.2,272.8l0.6-4.9c0,0-39.9-53.3-116.9-14.3c0,0-1,1.7-2.9,4.9C540,257,580.6,261.5,619.2,272.8z"/>
						<path class="st11" d="M612.8,260.5c-1.8,13.3-4,26.5-6.4,39.6c-10.3,57-24.2,116.3-50.9,168c12.4-1.3,25.5-3.8,39.4-8.1
							l25-192.1C619.8,267.9,617.5,264.7,612.8,260.5z"/>
						<path class="st12" d="M498.5,261.5c-12.9,23-50,93.9-65.6,171.9c0,0,2.9,2.7,8.4,6.6c14.2-61.8,33.5-123.7,65.8-178.4
							C504.1,261.5,501.3,261.4,498.5,261.5z"/>
						<path class="st7" d="M538.3,277.8l-3.5,30.2c0,0,6.5,0.6,22-0.7c15.4-1.3,30.4,9.6,30.4,9.6l19-43.7
							C606.2,273.2,595,242.6,538.3,277.8z"/>
						<polygon class="st7" points="482.9,290.1 485.6,298.9 509.4,302.3 519.7,293.8 521,283.2 						"/>
						<path class="st13" d="M534.8,308c0,0,35.3-18.2,52.4,9c0,0-2.5,23.7-30.3,21.3C529.1,335.9,534.8,308,534.8,308z"/>
						<path class="st14" d="M511.1,147.5l-22.1-4.2c0,0,9.6-5.2,29.1-8.2C537.4,132.1,511.1,147.5,511.1,147.5z"/>
						<path class="st9" d="M539.5,277.7c0,0-6.8-10.4-6.2-16.1c0,0,46.1-35.6,81.8-13.9c0,0,2.9,15.4-9,25.5
							C606.2,273.2,581.2,256.1,539.5,277.7z"/>
						<path class="st8" d="M499.4,244.8c0,0,21.9-56,3.2-106.8c0,0,116.2-32.9,158.9,56.1c0,0-15.6,48.5-17.9,80.3
							C643.6,274.5,573.3,239.2,499.4,244.8z"/>
						<path class="st0" d="M520.4,244.2c1.8-7.6,3.2-15.4,4.4-23.1c2.7-22.9,2.9-46.1,0.3-69c-0.9-6-2-12-3.4-17.9
							c-11.7,1.7-19.1,3.8-19.1,3.8c18.7,50.7-3.2,106.8-3.2,106.8C506.5,244.3,513.5,244.1,520.4,244.2z"/>
						<path class="st14" d="M638,240.2c-2.5,9.5-4.9,19-7.3,28.6c8.2,3.4,12.9,5.7,12.9,5.7c2.3-31.8,17.9-80.3,17.9-80.3
							c-2.1-4.4-4.5-8.6-6.9-12.4C648.6,201.1,643.2,220.6,638,240.2z"/>
						<path class="st15" d="M470.6,391.4c0,0,47.1,23,97.5-7.1C568.1,384.3,527.8,423,470.6,391.4z"/>
						<path class="st9" d="M521.2,265.3l0.7,21.1c0,0-17.4,15.2-48,1.5l2.9-12.3C476.8,275.6,503.1,283.8,521.2,265.3z"/>
						<path class="st9" d="M505.8,370l-5.5,7.5c0,0,23.7,55.4,74.2,29.4C574.5,406.9,526.8,418.2,505.8,370z"/>
						<path class="st9" d="M489.6,372.4l3.6,5.8c0,0-26,33.2-64.4,7.9C428.8,386.2,466.7,401.1,489.6,372.4z"/>
						<path class="st7" d="M475,375c0,0,7.1,20.1,15.4,23.1c8.2,3,24.8-13.8,24.8-13.8S491,366.4,475,375z"/>
						<path class="st16" d="M485.6,298.9c0,0,13-2,23.7,3.3l-6.8-9.6l12.6,12.6l-20.2,5.5l10.4-6
							C505.4,304.8,499.5,300.1,485.6,298.9z"/>
						<path class="st2" d="M519.7,293.8c0,0-31,24.6-44.7,81.2c0,0,7.7,12.8,40.2,9.3L519.7,293.8z"/>
						<path class="st17" d="M480.1,379.5c7.7-29.7,19-58.3,36.4-82.8c-8.2,7.9-30.5,32.7-41.5,78.3C475,375,476.3,377.2,480.1,379.5
							z"/>
						<path class="st7" d="M472.9,409.7c0,0,10.9,6.7,41.7,6.8C514.7,416.6,486.3,472,472.9,409.7z"/>
						<path class="st15" d="M550.8,377.5c0,0,21.3,5,32.3,18.5C583.1,396.1,578.4,375,550.8,377.5z"/>
						
							<ellipse transform="matrix(0.251 -0.968 0.968 0.251 111.3884 787.4236)" class="st9" cx="564.5" cy="321.7" rx="11.4" ry="11.4"/>
						<path class="st9" d="M534.8,308"/>
						<path class="st16" d="M534.8,308c0,0,32.6-25.4,57.2,8l-4.9,1C587.2,317,572.6,293,534.8,308z"/>
						<path class="st7" d="M636.5,331.7c0,0-14.5,3.7-30.3,21.3c0,0,14.6-1.3,20.5,5.1c0,0-5.2-9.6-10.9-9.4
							C615.8,348.6,626,336.1,636.5,331.7z"/>
						<path class="st8" d="M496.8,264.4c0,0-27.1-8.9-20.8-14c6.4-5.1,118.2-47.6,174.3,28c0,0-3.1,5.8-11.2,6.9l2.1-10.7
							c0,0-64.5-30.6-153.7-20.5c0,0,2.6,4,11.6,7L496.8,264.4z"/>
						<path class="st14" d="M558.5,129.8c0,0,47.9,49,111.7,30.7l-12.7,10.2c0,0,12.3,29.7,52,21.2c0,0-20,12.8-51.1,6.5l2.9-9.9
							c0,0-7.7-12-19.3-17.3C642.1,171.1,594.2,176.7,558.5,129.8z"/>
						<path class="st14" d="M571.3,130.6c-3.8-0.6-7.6-1.2-11.3-1.8c-8.2-1.3-16.5-2.7-24.8-2.5c-15.6,0.3-28.2,6.6-41.2,14.5
							C515.9,128.1,546.7,128.1,571.3,130.6z"/>
					</g>
					<path class="st5" d="M535.1,495.8c0,0,37.8,0,56.2-15.9l12.2,13.4l-17.1,19.5l4.9,4.9l-9.8,18.3c0,0-24.4,4.9-65.9-13.4
						C515.5,522.6,505.8,498.2,535.1,495.8z"/>
					<path class="st6" d="M603.4,493.4c0,0-18.3,22-54.9,19.5l36.6,2.4L603.4,493.4z"/>
					<path class="st6" d="M510.7,532.4c0,0,4.9-41.5,24.4-50v13.4l-14.6,28.1L510.7,532.4z"/>
					<path class="st5" d="M535.1,482.4l-23.2,3.7l-4.9-8.5l-17.1-3.7c0,0-13.4,25.6-3.7,48.8c0,0,12.2,11,24.4,9.8
						C510.7,532.4,519.2,495.8,535.1,482.4z"/>
					<path class="st6" d="M507,477.5c0,0-7.3,23.2-4.9,33c0,0,1.2-14.6,9.8-24.4L507,477.5z"/>
					<polygon class="st6" points="459.4,483.6 477.7,504.3 466.7,501.9 					"/>
				</g>
				<path class="st5" d="M485,517.8c0,0-33,25.6-56.2,56.2c0,0-8.5,24.4-12.2,56.2c0,0,26.9-19.5,42.7-45.2l34.2-62.3L485,517.8z"/>
				<path class="st6" d="M444.5,591.9c-11.7,17.4-27.9,38.2-27.9,38.2c45.2-25.6,76.9-107.4,76.9-107.4H493
					C477.4,546.2,461.5,569.5,444.5,591.9z"/>
			</g>
			<path class="st18" d="M571.7,580c0,4.7-3.8,8.5-8.5,8.5c-4.7,0-8.5-3.8-8.5-8.5s3.8-8.5,8.5-8.5
				C567.9,571.5,571.7,575.3,571.7,580z"/>
			<path class="st18" d="M554.6,631.3c0,4.7-3.8,8.5-8.5,8.5c-4.7,0-8.5-3.8-8.5-8.5c0-4.7,3.8-8.5,8.5-8.5
				C550.8,622.7,554.6,626.6,554.6,631.3z"/>
			<path class="st18" d="M536.3,683.8c0,4.7-3.8,8.5-8.5,8.5s-8.5-3.8-8.5-8.5s3.8-8.5,8.5-8.5S536.3,679.1,536.3,683.8z"/>
			<path class="st18" d="M521.7,743.6c0,4.7-3.8,8.5-8.5,8.5c-4.7,0-8.5-3.8-8.5-8.5s3.8-8.5,8.5-8.5
				C517.8,735.1,521.7,738.9,521.7,743.6z"/>
			<g>
				<path class="st2" d="M222.5,450.8l-13.2-59.6c0,0,27.6-39.7,69.5-23.2l17.7,60.7L222.5,450.8z"/>
				<path class="st19" d="M313.5,430.4c-11.6-12.7-21.9-26.5-29.6-41.7c-6.1,7.4-9.4,18.2,3,31.4c-0.8-0.6-2-1.1-3.5-1.2
					c0.5,0.4,1.1,0.8,1.7,1.3c3.7,2.8,5.1,4.2,7.9,7.9c1.7,2.2,3.4,4.2,4.6,6.6c1.7,3.4,3.3,7,4.4,10.8c0.3,1.2,0.6,2.4,0.8,3.7
					c3.2-5.2,7.6-11.4,12.9-16.8C314.8,431.8,314.1,431.1,313.5,430.4z"/>
				<path class="st2" d="M222.5,450.8c0,0,16.5,22.1,44.1,5.5c0,0,15.4,15.4,36.4,4.4c0,0,11-24.3,27.6-35.3
					c0,0-20.6-18.8-25.4-39.2c-1-4-5.7-5.7-8.9-3.1c-8.9,7.1-19.7,21-0.9,39c0,0-5.5-9.9-21,5.5L222.5,450.8z"/>
				<path class="st19" d="M264.4,433.1c0,0,8.8-16.5,27.6-15.4l-7.7-6.6C284.3,411.1,268.8,415.5,264.4,433.1z"/>
				<path class="st20" d="M305.2,386.2c0,0-6.5-0.5-11,8.3c0,0,2.2,13.2,8.8,16.5l11-5.5L305.2,386.2z"/>
				<path class="st2" d="M278.8,340.4c0,0-12.1,44.1,27.6,32c0,0-8.8-24.3-2.2-41.9l-23.2-7.7l-15.4,6.6l-3.3,37.5L278.8,340.4z"/>
				<path class="st2" d="M284.3,340.4l-0.5,48.3l-21.6-21.8l7.7-28.7C269.9,338.2,277.7,328.3,284.3,340.4z"/>
				<path class="st19" d="M278.8,368c0,0-7.7-9.9,0-27.6c0,0-17.7,26.5,4.4,38.6l1.1-7.7L278.8,368z"/>
				<path class="st20" d="M288.7,366.9c0,0-4.4-7.7-1.1-15.4h13.2l3.3,16.5C304.1,368,295.3,370.2,288.7,366.9z"/>
				<path class="st2" d="M262.2,366.9l-7.7-38.6l5.5-16.5c0,0,39.7,15.4,40.8-24.3c0,0-37.5-14.3-61.8,14.3l-9.9,30.9l13.2,40.8
					C242.4,373.5,253.4,373.5,262.2,366.9z"/>
				<path class="st2" d="M240.1,369.1L223.6,336l3.3-27.6c0,0,30.9-12.1,14.3-40.8c0,0-16.5,0-35.3,25.4l-5.5,40.8l23.2,51.8
					C223.6,385.7,237.9,385.7,240.1,369.1z"/>
				<path class="st2" d="M222.5,376.9l-24.3-12.1c0,0,13.2-23.2-16.5-35.3v47.4l32,19.9C213.7,396.7,223.6,385.7,222.5,376.9z"/>
				<path class="st19" d="M218.1,384.6c0,0,24.3-18.8,53-15.4C271,369.1,235.7,355.9,218.1,384.6z"/>
				<path class="st19" d="M249,306.3c0,0,14.3,15.4,35.3,7.7c0,0-27.6-1.1-34.2-14.3L249,306.3z"/>
				<path class="st19" d="M254.5,328.3c0,0-6.6,6.6-16.5,4.4L254.5,328.3z"/>
				<path class="st19" d="M215.9,309.6c0,0,22.1,1.1,28.7-18.8C244.6,290.8,232.4,308.5,215.9,309.6z"/>
				<path class="st19" d="M209.3,337.1c0,0,7.7,3.3,14.3-1.1L209.3,337.1z"/>
				<path class="st19" d="M190.5,371.3c0,0,14.3-6.6,11-22.1L190.5,371.3z"/>
				<path class="st19" d="M209.3,371.3l-6.6,11C202.6,382.4,210.4,382.4,209.3,371.3z"/>
			</g>
			<polygon class="st0" points="273.8,610.5 270.2,599.6 262.9,599.6 			"/>
			<path class="st4" d="M270.2,599.6c0,0,4.9,31.7-14.6,64.7c0,0,20.8-19.5,18.3-53.7L270.2,599.6z"/>
			<path class="st4" d="M262.9,599.6c0,0,1.2,33-33,47.6c0,0,36.6-3.7,40.3-47.6H262.9z"/>
			<path class="st4" d="M228.7,506.8c0,4-3.3,7.3-7.3,7.3c-4,0-7.3-3.3-7.3-7.3c0-4,3.3-7.3,7.3-7.3
				C225.4,499.5,228.7,502.7,228.7,506.8z"/>
			<path class="st4" d="M221.4,528.8c0,4-3.3,7.3-7.3,7.3c-4,0-7.3-3.3-7.3-7.3c0-4,3.3-7.3,7.3-7.3
				C218.1,521.4,221.4,524.7,221.4,528.8z"/>
			<polygon class="st4" points="243.3,495.8 226.2,561.7 248.2,498.2 			"/>
		</g>
		<path class="st3" d="M655.9,528.8c0,0-43.9,85.5-61,141.6l53.7-65.9l-2.4-34.2C646.2,570.3,653.5,533.6,655.9,528.8z"/>
	</g>
	<g>
		<path class="st5" d="M259,927.9c0,0-109.1,21.5-198.5,47.1c0,0,36.9-55.2,72.4-83.6L39.8,883c0,0,85.5-62.1,190.1-73.6L259,927.9z
			"/>
		<path class="st5" d="M745.3,927.8c0,0,110.5,12.6,201.6,31c0,0-41.2-52.1-78.9-77.5l92.2-15.9c0,0-90.2-55-195.4-58.1L745.3,927.8
			z"/>
		<polygon class="st6" points="193.9,889 259,927.9 253,837.7 		"/>
		<polygon class="st6" points="805.9,886.3 744.2,930.3 743,840 		"/>
		<path class="st5" d="M154,746.4c0,0,300.9-112.3,676.8-0.4l-26,142.8c0,0-305.8-70.7-610.9,0.2L154,746.4z"/>
		<g>
			<path class="st21" d="M256.5,760l8.1,61.2l-12.3,2.3l-0.1-1c1.8-0.7,3.2-2,4.4-3.7c1-1.6,1.6-3.5,1.8-5.5c0.1-2-0.1-5.4-0.8-10.2
				l-3.5-26.8c-0.8-5.7-2-9.5-3.7-11.3c-1.7-1.9-3.7-2.9-6.1-3.1l-0.1-1C246.4,760.9,250.6,760.6,256.5,760z M299.8,754.3l8.1,61.2
				c-1.7,0.3-5.9,1.1-12.7,2.4l-0.1-1c2.3-0.8,4.1-2.4,5.3-4.8s1.4-6.7,0.6-12.8l-1.6-12.3l-29.5,3.9l1.9,14.1c0.7,5.5,2,9,3.8,10.7
				c1.8,1.7,3.9,2.7,6.2,2.9l0.1,1c-4.9,0.2-9.2,0.6-12.9,1l-8.1-61.2c3.4-0.5,7.7-1.3,12.7-2.4l0.1,1c-2.9,1.3-4.8,3.1-5.7,5.7
				c-0.8,2.5-0.9,6.7-0.1,12.5l1.3,9.7l29.5-3.9l-1.5-11.1c-0.6-4.8-1.8-8.4-3.4-10.7c-1.7-2.3-3.9-3.6-6.8-3.9l-0.1-1
				C291.1,755.2,295.4,754.8,299.8,754.3z M312.2,814.9l-8.1-61.2c4.2-0.6,8.4-1.3,12.5-2.4l0.1,1c-4.7,2-6.7,7.1-5.8,15.1l0.6,5.5
				l3.5,26.3c1.1,8.7,4.4,13.2,9.8,13.7l0.1,1C317.5,814.5,313.2,814.8,312.2,814.9z"/>
			<path class="st21" d="M340,772.9c-3.3,4.3-4.5,10.4-3.9,18.2c0.7,7.8,3,13.7,7,17.5c-7.1-3.2-11-9-11.7-17.3
				C330.7,783.1,333.6,777,340,772.9z M340.2,791.4c-0.7-7.5,0.4-13.3,3.1-17.3c2.8-4,6.9-6.3,12.3-6.7c5.1-0.4,9.4,0.8,13,3.8
				c3.6,3,5.7,8.3,6.4,16c0.7,8.4-0.5,14.4-3.8,18c-3.3,3.7-7.3,5.7-11.9,6.1c-4.8,0.4-9-1-12.7-4.2
				C343,804,340.8,798.7,340.2,791.4z M345,790c0.6,7.1,2.2,11.8,4.6,14.2c2.4,2.3,5.6,3.3,9.6,3c3.8-0.3,6.7-1.9,8.8-4.8
				c2.1-2.8,2.8-7.8,2.2-14.8c-1-11.8-5.8-17.3-14.2-16.6C347.6,771.8,343.9,778.1,345,790z M375.2,805.2c3.2-4.3,4.5-10,3.9-17.2
				c-0.3-3.9-1.1-7.4-2.2-10.7c-1.2-3.4-2.8-5.8-4.8-7.2c7.1,3.2,11.1,8.7,11.8,16.5C384.5,794,381.6,800.2,375.2,805.2z"/>
			<path class="st21" d="M399,792l-1.2-21.8l-3.7,0.2l0-0.5l7.6-8.1l1.9,33.3c0.2,3.8,0.7,6.5,1.6,7.9c0.8,1.5,1.9,2.6,3.2,3.2
				c-3.2-0.1-5.5-1.1-6.9-3.1C400.1,801.2,399.3,797.4,399,792z M409.3,752.4l0.7,13l10-0.6c1.8-0.1,3.2-0.4,4.1-0.8
				c1-0.5,2.1-1.4,3.4-2.8l1.5-0.1c-2.2,3.5-3.8,5.6-4.7,6.4c-0.9,0.8-2.4,1.3-4.4,1.4l-9.6,0.5l1.3,22.3c0.2,3.3,0.5,5.6,0.9,6.8
				c0.4,1.2,1.2,2.2,2.5,3c1.3,0.8,3,1.1,5.2,1c4.3-0.2,8-2.5,10.9-6.7l1.3,0.6c-2.8,6.4-7.3,9.7-13.4,10.1
				c-2.6,0.1-4.8-0.3-6.7-1.4c-1.9-1.1-3.1-2.5-3.8-4.2c-0.7-1.8-1.1-4.4-1.3-7.8l-2-35.2C406.6,756.2,408,754.3,409.3,752.4z"/>
			<path class="st21" d="M450.7,742.7l1.1,61.7c-2.8,0-7.1,0.4-13.1,0.9l0-1.1c3-0.9,5.1-2.7,6.3-5.4c1.2-2.6,1.7-8,1.5-16.1
				l-0.4-24.2c-0.1-5-0.8-8.6-2-10.8c-1.3-2.2-3.4-3.7-6.5-4.6l0-1.1C442.7,742.5,447.1,742.7,450.7,742.7z M459.6,804.3l-3.6,0.1
				l-1.1-61.7c5.4-0.2,9.2-0.4,11.3-0.6c3.2-0.3,5.5-0.4,6.7-0.4c5.9-0.1,10.9,1.2,15.1,3.8c4.2,2.7,7.3,6.2,9.4,10.6
				c2.1,4.3,3.2,9.8,3.3,16.5c0.2,10.2-2.1,18-6.9,23.7c-4.8,5.6-11.4,8.5-19.8,8.7c-3.9,0.1-8.3-0.1-13.3-0.4
				C460.5,804.3,460.1,804.3,459.6,804.3z M460.8,747.9c-0.6,1.8-0.8,7.9-0.6,18.5l0.3,14.3c0.2,8.6,0.8,14.8,2,18.7
				c3,0.9,6.5,1.3,10.3,1.2c7.2-0.1,12.9-2.5,16.9-7.2c4.1-4.7,6.1-11.5,5.9-20.4c-0.2-8.7-2.3-15.5-6.6-20.3
				c-4.2-4.8-10.4-7.1-18.4-6.9C466.5,745.9,463.2,746.6,460.8,747.9z M495.8,799.1c6.4-5.1,9.5-13.7,9.3-26
				c-0.2-12-3-20.3-8.4-25.2c4.5,2.8,7.9,6.4,10.3,10.5s3.6,9,3.7,14.4C510.8,784.1,505.8,792.8,495.8,799.1z"/>
			<path class="st21" d="M530.9,765.1c-3.7,3.9-5.7,9.8-6,17.6c-0.2,7.8,1.4,13.9,4.9,18.2c-6.6-4-9.8-10.2-9.6-18.6
				C520.5,774.1,524.1,768.3,530.9,765.1z M528.9,783.4c0.2-7.6,1.9-13.2,5.1-16.8c3.2-3.7,7.6-5.4,13-5.2c5.1,0.1,9.2,1.9,12.4,5.3
				c3.2,3.4,4.7,8.9,4.5,16.6c-0.2,8.4-2.2,14.2-5.8,17.4c-3.7,3.3-7.9,4.8-12.6,4.7c-4.8-0.1-8.8-2-12.1-5.6
				C530.3,796.2,528.7,790.8,528.9,783.4z M533.9,782.6c-0.2,7.1,0.7,12,2.9,14.6c2.1,2.6,5.2,4,9.2,4.1c3.8,0.1,6.9-1.1,9.3-3.7
				c2.4-2.6,3.7-7.4,3.9-14.4c0.3-11.8-3.7-17.9-12.1-18.1C538.6,764.8,534.2,770.7,533.9,782.6z M562.1,801.2
				c3.7-3.9,5.7-9.5,5.9-16.6c0.1-3.9-0.2-7.5-1-10.9c-0.8-3.5-2.1-6.1-3.9-7.7c6.7,4,10,9.9,9.7,17.8
				C572.7,791.2,569.1,797.1,562.1,801.2z"/>
			<path class="st21" d="M581.3,829c3.1,8.1,9.6,13.8,19.6,17.1c-2,0.5-4.1,0.7-6.2,0.5c-5-0.4-8.7-2.1-11.2-5.1
				c-2.5-3.1-3.6-6.2-3.4-9.4C580.1,831.2,580.5,830.1,581.3,829z M593.1,767c-3.4,4-5.3,8.9-5.8,14.5c-0.4,4.9,0.4,9.3,2.4,13.3
				c-2.4-0.8-4.2-2.5-5.5-5.2c-1.4-2.7-1.9-5.4-1.7-8.4c0.3-3.6,1.4-6.6,3.5-9.1C588,769.5,590.4,767.8,593.1,767z M594.7,817.6
				c-4.7-2.6-7-5.7-6.7-9.2c0.3-4.3,4.1-7.5,11.3-9.7c-6-3-8.7-8.7-8-17c0.4-5.5,2.2-9.7,5.4-12.7c3.2-3,6.9-4.3,11.3-4
				c4.5,0.3,8.1,2.2,10.9,5.5c2.7,3.3,3.9,7.9,3.4,13.7c-0.8,10.5-6.1,16.1-15.9,16.8c-4.2,0.3-6.4,1.3-6.5,3.2
				c-0.1,1.1,0.4,1.9,1.6,2.5c1.2,0.7,4.3,1.9,9.4,3.7c8,2.8,13.5,5.7,16.6,8.7c3.1,3.1,4.5,6.7,4.2,10.9c-0.3,4.4-2.3,7.6-6,9.5
				l-0.2-0.2c1.5-1.8,2.4-4.2,2.6-7c0.3-4.1-1.1-7.5-4.1-10.2c-3.1-2.7-7.9-5.2-14.3-7.4c-6.1-2.1-9.9-3.6-11.4-4.6
				c-1.6-0.9-2.3-2.1-2.2-3.5c0.1-1.4,1.1-3.2,3.1-5.2c-4.1,1.3-6.2,3.5-6.4,6.4c-0.1,1.7,0.5,3.2,1.9,4.4c1.4,1.3,4.7,2.9,10.1,5
				c7.8,3,12.9,5.4,15.5,7.4c2.6,2,3.8,4.5,3.6,7.4c-0.2,3.2-2,5.9-5.3,8.1c-3.3,2.3-7.3,3.2-12.2,2.8c-6-0.5-11-2.5-15.2-6.3
				s-6.1-7.4-5.8-10.9C585.7,822.2,588.8,819.5,594.7,817.6z M597.3,818.9c-4.4,1.9-6.7,4.2-6.9,6.8c-0.2,2.8,1.2,5.5,4.4,8.2
				c3.2,2.7,7.2,4.3,12,4.6c3.4,0.3,6.3-0.2,8.7-1.5c2.4-1.2,3.7-2.8,3.8-4.8c0.1-1.6-0.7-3-2.5-4.4c-1.7-1.3-5.2-3-10.3-5
				C602.1,821.1,599,819.8,597.3,818.9z M596.2,782c-0.7,9.2,2.5,14.1,9.7,14.7c3.2,0.2,5.9-0.8,8-3c2.1-2.2,3.3-5.6,3.7-10.1
				c0.4-4.8-0.4-8.4-2.2-10.9c-1.8-2.5-4.3-3.9-7.3-4.1c-3.1-0.2-5.8,0.7-8,2.9C597.8,773.7,596.5,777.2,596.2,782z M647.6,768.3
				l1.5,0.4c-0.9,4.8-2.7,7.1-5.6,6.9c-1.4-0.1-3.1-0.8-5.1-2.1c-1.9-1.2-3.5-1.9-4.6-2c-2.1-0.2-3.8,0.6-5.1,2.3l0.1,0.4
				c0.8-0.3,1.5-0.4,1.8-0.3c1.2,0.1,2.9,1,5.1,2.9c1.7,1.3,3.5,2.1,5.2,2.2c1.2,0.1,2.3-0.1,3.3-0.7l0.4,0.7
				c-1.8,2-3.8,2.9-5.9,2.8c-1.5-0.1-3.2-1.1-5.2-2.8c-1.5-1.3-2.7-2.2-3.7-2.6c1.1,2.9,1.5,5.7,1.3,8.3c-0.6,7.2-3.8,11.7-9.7,13.5
				c2.8-3.6,4.4-8.2,4.8-13.7c0.5-6.6-0.8-12.1-4-16.6c2.3,1.2,4,2.5,5,3.9c2.6-2.9,5.2-4.2,7.7-4.1c1.4,0.1,3,0.8,4.8,2
				c1.9,1.2,3.4,1.9,4.3,2C645.4,771.6,646.6,770.6,647.6,768.3z"/>
			<path class="st21" d="M671.5,751.6l-7.8,61.3c-3.4-0.4-7.5-0.7-12.3-0.9l0.1-1c2.8-0.5,4.9-1.9,6.4-4.2c1.5-2.3,2.6-6.2,3.3-11.8
				l3.7-28.7c0.7-5.3,0.4-9-0.7-11.3c-1.2-2.2-2.8-3.7-4.9-4.5l0.1-1.1C663.5,750.2,667.5,750.9,671.5,751.6z M670.5,813.7l-2.3-0.3
				l7.8-61.3l14.4,1.8c4.2,0.5,9.7,1,16.7,1.4c-0.2,1-0.4,2.3-0.6,3.9c-0.1,0.9-0.3,2.7-0.5,5.3c-0.2,2.8-0.4,4.3-0.4,4.4l-0.2,1.5
				l-1.2-0.2c-0.2-7.1-3-11-8.5-11.7l-11.3-1.4c-1.3-0.2-2.4-0.1-3.5,0.1c-0.9,3-1.7,7.1-2.3,12.2l-1.5,12l10.2,1.3
				c4.4,0.6,7.6,0.4,9.8-0.4c2.1-0.8,3.6-2.5,4.6-5.1l1.3,0.2c-0.8,4.2-1.3,7-1.5,8.6c-0.1,1-0.3,2.6-0.5,5
				c-0.1,2.2-0.3,3.8-0.4,4.8l-0.2,1.9l-1.3-0.2c0.6-6.1-2.3-9.6-8.7-10.4l-13.8-1.8l-1.7,13.5c-1.1,8.8,0.9,14,6.1,15.8l-0.1,1
				C675.4,814.6,671.9,813.9,670.5,813.7z"/>
			<path class="st21" d="M715.5,805.4l4.5-26.8l4.3,0.7l-4.9,28.8c-0.7,4.2-0.8,7.3-0.3,9.3c0.5,2,1.6,3.6,3.4,4.7l-1.8-0.3
				c-2.4-1.6-4.1-3.5-5.1-5.8C714.7,813.7,714.6,810.2,715.5,805.4z M725.5,759.7l6.9,8.9l-3.3,2.4l-6.8-8.9L725.5,759.7z
				 M723.4,807.7l4.7-27.8l4.3,0.7l-4.8,28.7c-1.2,7,0.7,10.9,5.6,11.8c1.6,0.3,2.9,0.2,4-0.3l-0.2,1.3c-2.2,1.3-4.5,1.7-6.9,1.3
				c-2.2-0.4-3.9-1.3-5.1-2.9c-1.4-1.6-2.1-3.3-2.2-4.9C722.6,813.9,722.8,811.3,723.4,807.7z M731.9,754.8l6.8,8.9l-3.2,2.4
				l-6.9-8.9L731.9,754.8z"/>
		</g>
	</g>
</g>
<g>
	<g>
		<path class="st22" d="M379.4,386.6c-2.9-17.8,24.9-33.9-32.5-67.5c-57.4-33.7-108.5-78.6-124.8-110.5
			c-16.3-31.9-46.7-20.5-59.4-19.9C201.4,274.2,379.4,386.6,379.4,386.6z"/>
		<g>
			
				<linearGradient id="SVGID_1_" gradientUnits="userSpaceOnUse" x1="-293.1942" y1="278.8666" x2="-292.1198" y2="278.8666" gradientTransform="matrix(-0.8711 -0.491 -0.491 0.8711 261.3224 -0.9615)">
				<stop  offset="0" style="stop-color:#E38730"/>
				<stop  offset="0.3076" style="stop-color:#E38933"/>
				<stop  offset="0.5116" style="stop-color:#E48E3C"/>
				<stop  offset="0.6855" style="stop-color:#E6984B"/>
				<stop  offset="0.8424" style="stop-color:#E8A660"/>
				<stop  offset="0.9868" style="stop-color:#EBB77B"/>
				<stop  offset="1" style="stop-color:#EBB97E"/>
			</linearGradient>
			<path class="st23" d="M379.2,384.7c0,0.6,0.1,1.2,0.2,1.8c0,0-0.2-0.1-0.5-0.3C379,385.8,379.1,385.2,379.2,384.7z"/>
			
				<linearGradient id="SVGID_2_" gradientUnits="userSpaceOnUse" x1="-286.824" y1="228.0087" x2="-25.4546" y2="228.0087" gradientTransform="matrix(-0.8711 -0.491 -0.491 0.8711 261.3224 -0.9615)">
				<stop  offset="0" style="stop-color:#E38730"/>
				<stop  offset="0.3076" style="stop-color:#E38933"/>
				<stop  offset="0.5116" style="stop-color:#E48E3C"/>
				<stop  offset="0.6855" style="stop-color:#E6984B"/>
				<stop  offset="0.8424" style="stop-color:#E8A660"/>
				<stop  offset="0.9868" style="stop-color:#EBB77B"/>
				<stop  offset="1" style="stop-color:#EBB97E"/>
			</linearGradient>
			<path class="st24" d="M342.9,326.9C283.3,292,230,245.8,212.7,213.3c-5.8-10.8-14.9-21.9-27.7-27.1c14.2-1.9,29,6.6,37,22.3
				c16.3,31.9,67.4,76.8,124.8,110.5c37.5,22,38.6,36.5,35.7,48.8C380,357.7,374.6,345.4,342.9,326.9z"/>
			
				<linearGradient id="SVGID_3_" gradientUnits="userSpaceOnUse" x1="-124.6338" y1="251.4849" x2="-77.1094" y2="251.4849" gradientTransform="matrix(-0.8711 -0.491 -0.491 0.8711 261.3224 -0.9615)">
				<stop  offset="0" style="stop-color:#E38730"/>
				<stop  offset="0.3076" style="stop-color:#E38933"/>
				<stop  offset="0.5116" style="stop-color:#E48E3C"/>
				<stop  offset="0.6855" style="stop-color:#E6984B"/>
				<stop  offset="0.8424" style="stop-color:#E8A660"/>
				<stop  offset="0.9868" style="stop-color:#EBB77B"/>
				<stop  offset="1" style="stop-color:#EBB97E"/>
			</linearGradient>
			<path class="st25" d="M243.4,284.6c-12.4-11-24.4-22.5-35.4-34C219.3,262.1,231.2,273.5,243.4,284.6z"/>
		</g>
		<path class="st26" d="M373.1,369.5c-3.9-8.9-4.1-13.8-11.1-20.5c-10.9-10.4-28.8-23.4-41.8-31c-9-5.3-18.4-9.5-27.5-14.7
			c-11-6.2-17.2-16.2-26.6-24.5c-11.1-9.8-25.8-17.7-34.9-29.4c-5.2-6.8-10.4-15.9-13.8-23.6c-7.1-15.7-19.2-24.3-32.6-33.5
			c-2.9-2-11.8-8.6-15.2-4.4c-4.3,5.3,7.1,20.8,9.5,24.7c26.1,41.3,61.8,78.3,98,110.9c15.8,14.2,32.6,28.3,51.3,38.5
			c10.1,5.5,21.4,10,33.1,9.1C365.4,370.8,369.4,370.4,373.1,369.5L373.1,369.5z"/>
		<path class="st27" d="M328.4,361.9c-18.8-10.2-35.5-24.3-51.3-38.5c-36.2-32.5-71.9-69.6-98-110.9c-2.5-3.9-13.8-19.3-9.5-24.7
			c3.4-4.2,12.2,2.4,15.2,4.4c1.8,1.3,3.7,2.5,5.4,3.8c6.9,11.9,14.5,23.4,22.8,34.4c23.4,29.4,51,55.2,80.8,78.1
			c23.7,17.5,48.5,33.1,74,47.9c2,3.8,3,7.7,5.3,13.1c-3.8,0.9-7.7,1.3-11.6,1.6C349.8,371.9,338.6,367.5,328.4,361.9z"/>
		<path class="st28" d="M354.7,345.9c0,0-0.4-0.5-1.3-1.3c-0.8-0.8-2-1.9-3.5-3.2c-1.5-1.3-3.3-2.7-5.2-4.2c-1-0.7-2-1.5-3-2.3
			c-1-0.7-2.1-1.5-3.2-2.3c-1.1-0.7-2.1-1.5-3.2-2.2c-1-0.7-2.1-1.4-3.1-2.1c-2-1.3-4-2.5-5.7-3.5c-3.4-2-5.7-3.2-5.7-3.2
			s0.5,0.4,1.3,1.2c0.9,0.8,2.1,1.8,3.6,3c1.5,1.2,3.3,2.6,5.3,4.1c1,0.7,2,1.5,3,2.2c1,0.7,2.1,1.5,3.2,2.2
			c2.1,1.5,4.3,2.9,6.3,4.3c1,0.7,2,1.3,2.9,1.9c0.9,0.6,1.8,1.2,2.6,1.7c0.8,0.5,1.6,1,2.3,1.4c0.7,0.4,1.3,0.8,1.7,1.1
			C354.2,345.6,354.7,345.9,354.7,345.9z"/>
		<path class="st28" d="M274.3,290.4c0,0-0.7-1.4-2.1-3.4c-0.6-1-1.5-2.1-2.4-3.3c-0.5-0.6-0.9-1.2-1.5-1.8
			c-0.5-0.6-1.1-1.2-1.7-1.7c-0.6-0.5-1.2-1-1.8-1.5c-0.6-0.5-1.3-0.9-1.9-1.3c-1.3-0.8-2.5-1.5-3.6-2c-1.1-0.5-2-0.9-2.7-1.1
			c-0.7-0.2-1.1-0.3-1.1-0.3s0.3,0.3,0.8,0.7c0.5,0.4,1.3,1,2.2,1.8c0.9,0.7,2,1.6,3.1,2.5c1.1,0.9,2.3,1.9,3.4,2.9
			c1.1,1,2.2,2.1,3.2,3.1c1,1,2,2,2.9,2.8C273,289.5,274.3,290.4,274.3,290.4z"/>
		<path class="st28" d="M216.6,232c0,0-0.1-0.5-0.3-1.4c-0.1-0.5-0.2-1-0.4-1.6c-0.1-0.3-0.2-0.6-0.3-1c-0.1-0.3-0.3-0.7-0.4-1.1
			c-0.3-0.8-0.6-1.6-0.9-2.4c-0.3-0.9-0.8-1.7-1.2-2.6c-0.5-0.9-0.9-1.8-1.5-2.7c-0.6-0.9-1.1-1.8-1.7-2.7c-0.6-0.9-1.3-1.7-1.9-2.5
			c-0.6-0.9-1.3-1.6-2-2.4c-0.7-0.7-1.3-1.5-2-2.1c-0.7-0.6-1.3-1.2-1.9-1.7c-0.3-0.3-0.6-0.5-0.9-0.8c-0.3-0.2-0.6-0.4-0.8-0.6
			c-0.5-0.4-1-0.7-1.4-1c-0.8-0.5-1.2-0.8-1.2-0.8s0.3,0.4,0.9,1.1c0.3,0.4,0.7,0.8,1.1,1.3c0.4,0.5,0.9,1,1.4,1.6
			c0.5,0.6,1,1.3,1.6,1.9c0.6,0.7,1.1,1.5,1.7,2.2c0.6,0.8,1.2,1.6,1.8,2.4c0.6,0.8,1.2,1.7,1.8,2.5c0.6,0.9,1.1,1.7,1.7,2.6
			c0.6,0.8,1.1,1.7,1.6,2.5c0.5,0.8,1,1.6,1.5,2.4c0.4,0.8,0.8,1.5,1.2,2.2c0.4,0.7,0.8,1.3,1,1.9c0.3,0.6,0.6,1.1,0.8,1.5
			C216.3,231.6,216.6,232,216.6,232z"/>
		<g>
			<path class="st29" d="M346.6,426.4C256.8,375.7,168,311.1,120.9,216.5c-0.8-1.6-1.6-3.3-2.4-4.9c-7.9-16.6-4.8-36.4,12.2-46.3
				c14.9-8.7,38.4-4.5,46.3,12.2c10,21,22.3,40.7,36.5,59.1c-1.8-2.3-3.6-4.6-5.4-6.9c24.9,32.1,54.7,59.9,87,84.4
				c-2.4-1.8-4.8-3.6-7.2-5.5c29.1,22,60.2,41,92,58.9c16.1,9.1,21.9,30,12.9,46.1C383.7,429.6,362.7,435.4,346.6,426.4L346.6,426.4
				z"/>
		</g>
		<path class="st30" d="M167.1,218c13.5,18.5,18.8,49.8,55.8,85c27.1,25.7,56.5,38.3,81.5,54.8c51,33.6,20.2,48.3,34.3,64l-22,10.2
			c-60.4,7.7-117.9-43.9-148.6-72c-26-23.8-66-63.2-70.7-108.9c-2.5-24.6,23.1-27.5,19.6-41.1c-2.1-8.3-2.5-13-2.5-13
			c1.4,3.2,5.9,6.5,21.6,5.1C147.2,200.9,161.9,210.7,167.1,218z"/>
		<g>
			<path class="st31" d="M155.1,165.4c-3.9-0.6-9.8,0.5-13.1,4.9c-3.6,4.9-5.9,10.2-2.3,16.4c2.2,3.7,29.8,19.8,39.3,36.2
				c11.5,19.6,24.1,38.4,39.3,55.4c16.1,18,34.1,33.3,54.4,46.2c17.4,11.1,34.1,21.6,51.1,33.3c2.7,1.9,6,4.3,8.4,6.2
				c4.7,3.9,13.7,11.4,18.2,16.5c5.9,6.7,15.3,16.5,16.6,25.8c1.3,9.9,5.1,13.9,12.5,12.6c4.8-0.9,9.5-8.1,10.5-9.6
				c7.6-10.6,0.8-30.7-15.7-38.4c-23.6-11-45.9-24.6-80.5-51.3c-32.3-24.9-54.1-40.4-81.7-76.5c-20.7-27-28.7-44.1-38.1-64
				C170,170.7,164.1,167.3,155.1,165.4z M325,357.8C324,357,324.4,357.3,325,357.8L325,357.8z"/>
		</g>
		<path class="st30" d="M367.2,399.5c0.7,0.2,1.4,0.4,2.1,0.6c0.7,0.2,1.4,0.4,2.1,0.6c0.7,0.2,1.4,0.5,2.1,0.7
			c1.4,0.5,2.8,1.1,4.1,1.9c0.7,0.4,1.3,0.8,1.9,1.3c0,0,0,0,0.1,0.1c0-0.2,0.1-0.3,0.1-0.5c0-0.4,0.1-0.8,0.1-1.2
			c0-0.4,0-0.9,0-1.4c0-0.5,0-1-0.1-1.5c-0.1-0.5-0.1-1.1-0.3-1.5l-0.2-0.8l-0.3-0.7c-0.2-0.4-0.5-0.9-0.7-1.3
			c-0.5-0.8-1.1-1.5-1.7-2.1c-0.3-0.3-0.6-0.5-0.8-0.7c-0.2-0.2-0.5-0.4-0.7-0.5c-0.4-0.3-0.6-0.4-0.6-0.4s0.2,0.1,0.7,0.4
			c0.2,0.1,0.5,0.2,0.7,0.4c0.3,0.2,0.6,0.4,0.9,0.6c0.7,0.5,1.4,1.1,2.1,1.9c0.3,0.4,0.7,0.8,1,1.3l0.4,0.7l0.3,0.7
			c0.2,0.6,0.3,1.1,0.5,1.6c0.2,0.5,0.3,1.1,0.4,1.6c0.1,0.5,0.2,1,0.2,1.5c0,0.4,0,0.8,0.1,1.2c0.1-0.1,0.3-0.3,0.4-0.4
			c0.4-0.4,0.7-0.8,1-1.2l0.5-0.6l0.4-0.6c0.3-0.4,0.6-0.8,0.8-1.3c0.2-0.4,0.5-0.9,0.7-1.4c0.2-0.5,0.4-0.9,0.6-1.4
			c0.2-0.5,0.3-1,0.4-1.5c0.1-0.5,0.2-1,0.3-1.5l0.1-0.8l0-0.8c0-0.5,0-1,0-1.5c0-0.5-0.1-1-0.1-1.5c0-0.5-0.2-1-0.3-1.5
			c-0.1-0.5-0.3-1-0.4-1.5c-0.2-0.5-0.4-1-0.5-1.5l-0.7-1.5c0.3,0.4,0.7,0.8,1,1.3c0.3,0.5,0.6,0.9,0.9,1.4c0.2,0.5,0.5,1,0.7,1.5
			c0.2,0.5,0.4,1,0.5,1.6c0.3,1.1,0.5,2.2,0.6,3.3l0,0.8l0,0.9c0,0.6-0.1,1.1-0.2,1.7c-0.1,0.6-0.2,1.1-0.4,1.7
			c-0.1,0.6-0.3,1.1-0.5,1.6c-0.2,0.5-0.5,1-0.7,1.6c-0.2,0.5-0.5,1-0.9,1.5l-0.5,0.7l-0.5,0.7c-0.4,0.4-0.7,0.9-1.1,1.3
			c-0.1,0.1-0.2,0.2-0.3,0.3c1.1,0.1,2.2,0.4,3.1,0.9c1,0.5,1.9,1,2.7,1.7c0.4,0.3,0.8,0.7,1.1,1.1c0.2,0.2,0.3,0.4,0.5,0.7
			c0.1,0.2,0.2,0.5,0.2,0.7c-0.1-0.2-0.3-0.4-0.5-0.6c-0.2-0.2-0.4-0.3-0.6-0.5c-0.4-0.3-0.8-0.5-1.3-0.7c-0.9-0.4-1.8-0.8-2.7-1
			c-0.9-0.3-1.8-0.4-2.7-0.4c-0.2,0-0.5,0-0.7,0.1c0,0.1,0.1,0.1,0.1,0.2c0.2,0.2,0.4,0.5,0.5,0.7c0.3,0.6,0.7,1.2,0.9,2
			c0.2,0.7,0.4,1.6,0.4,2.4c0,0.4,0,0.8,0,1.2c0,0.4-0.1,0.8-0.2,1.1c-0.1,0.4-0.2,0.7-0.3,1c-0.1,0.3-0.3,0.6-0.4,0.9
			c-0.3,0.5-0.6,0.9-0.8,1.2c-0.2,0.3-0.3,0.4-0.3,0.4s0.1-0.2,0.2-0.5c0.2-0.3,0.3-0.7,0.5-1.3c0.1-0.3,0.1-0.6,0.2-0.9
			c0.1-0.3,0.1-0.6,0.1-1c0-0.3,0-0.7,0-1.1c0-0.4-0.1-0.7-0.2-1.1c-0.1-0.7-0.4-1.4-0.7-1.9c-0.3-0.6-0.7-1.1-1-1.5
			c0,0-0.1-0.1-0.1-0.1l-0.1,0.5l-0.2,1.1l-0.4,1l-0.4,1c-0.3,0.6-0.7,1.3-1.1,1.8l-0.7,0.8l-0.7,0.8l-0.8,0.7l-0.9,0.6l-0.9,0.6
			l-0.9,0.5l-1,0.4l-1,0.3l0.9-0.5l0.8-0.6c0.5-0.4,1-0.8,1.5-1.3l0.7-0.7l0.6-0.7l0.6-0.8l0.5-0.8l0.4-0.8l0.4-0.9l0.3-0.9l0.2-0.9
			l0.1-0.9l0.1-0.9l0-0.3c-0.2,0-0.5,0-0.7,0c-0.5,0-1,0.1-1.6,0.2c-0.6,0.1-1.2,0.2-1.9,0.3c-2.6,0.5-5.3,0.8-5.3,0.8
			s2.5-0.9,5-1.9c0.6-0.2,1.3-0.5,1.9-0.7c0.5-0.2,1-0.4,1.5-0.5c-0.1-0.1-0.1-0.1-0.2-0.2c-0.5-0.4-1.1-0.8-1.7-1.1
			c-0.6-0.4-1.2-0.7-1.8-1c-0.6-0.3-1.3-0.7-1.9-1l-1.9-1c-0.7-0.3-1.3-0.7-2-1c-0.7-0.3-1.3-0.7-1.9-1.1c-0.6-0.4-1.3-0.8-1.9-1.3
			C365.8,399.1,366.5,399.3,367.2,399.5z"/>
		
			<linearGradient id="SVGID_4_" gradientUnits="userSpaceOnUse" x1="-116.9171" y1="361.2519" x2="-127.6559" y2="286.3556" gradientTransform="matrix(-0.8711 -0.491 -0.491 0.8711 261.3224 -0.9615)">
			<stop  offset="0" style="stop-color:#E38730"/>
			<stop  offset="1" style="stop-color:#EBB97E"/>
		</linearGradient>
		<path class="st32" d="M161.3,220c15.3,17.1,20.3,49.9,57.3,85c27.1,25.7,55.9,37.9,80.4,55.2c43.5,30.8,25.2,49.8,32.5,56.9
			c0,0,10.6,6.7,12.4,7.7c-5.1,2.2-14.4,5.3-27.2,7c-60.4,7.7-117.9-43.9-148.6-72c-26-23.8-66-63.2-70.7-108.9
			C91.9,196.9,142.7,199.1,161.3,220z"/>
		<path class="st33" d="M97.4,250.9c-2.3-22.5,5.2-35.3,16.1-41c-2.9,3.1-5.6,6.9-7.3,12.9c-4.5,15.9-1.5,29.2,8.7,50.6
			c16,33.6,53.5,68.7,79.4,89.4c24.2,19.4,75.2,46.5,100,45.7c10.3-0.3,35.2-1.1,25-30.1c16.6,20.2,6.5,33.2,12.2,38.8
			c0,0,10.6,6.7,12.4,7.7c-5.1,2.2-14.4,5.3-27.2,7c-60.4,7.7-117.9-43.9-148.6-72C142.1,336,102.1,296.7,97.4,250.9z"/>
		<path class="st34" d="M103.7,218.5c-3,6.7-4.3,15.5-3.1,26.8c4.7,45.7,44.6,85.1,70.7,108.9c30.8,28.1,84.7,75.7,145.1,68
			c7.9-1,11.8-2.3,16.9-4c2.1,1.2,10,6.3,10.7,6.6c-5.1,2.2-14.4,5.3-27.2,7c-60.4,7.7-117.9-43.9-148.6-72
			c-26-23.8-66-63.2-70.7-108.9C95.9,236.2,98.6,225.7,103.7,218.5z"/>
		<g>
			<path class="st35" d="M301.7,395.4c-10.2-7.1,0.2-12.7-48.7-44.1c-20.5-13.2-36.1-25.6-51.4-40.9c-13.8-13.9-23.8-27.1-32.5-44.6
				c-4.5-9-10.1-19.1-17.8-25.9c-6.8-6-13.2-10-20.5-15.2c-9.6-6.8-7-12.8,6.2-10.2c6.1,1.2,14.2,6.5,21.1,14.8
				c7.1,8.5,11.4,17.9,15.9,27.8c8.1,18.2,18.9,35.1,32.7,49.6c30.8,32.4,88,47.8,102.1,74.4C312.7,388.5,310.7,401.9,301.7,395.4
				L301.7,395.4z"/>
		</g>
		<g>
			<path class="st36" d="M160.9,170.5c5.6-4.5,13.7,3.4,8,8c-3.1,2.5-10.6,7.8-9.5,12.2c0.9,3.7,7.9,5.8,10.8,6.9
				c5.7,2.1,11.5,3.9,17.1,6.3c9.6,4,16.7,11,19.2,21.3c1.4,5.8,1,11.9,0.5,17.8c-0.4,5.2-1.5,11.4,1.3,16.2
				c3,4.9,12.3,4.6,17.2,4.8c6.9,0.2,13.4,0.9,19.8,3.7c7.2,3.2,11.6,10.1,12.7,17.7c1.1,7.1-0.6,16.9-0.2,24.1
				c0.5,7,5.4,9,12.1,9.6c5.1,0.5,26.1-5.3,31.8-4.5c10.3,1.5,16.4,8.5,20.1,17.7c2.3,5.6,3,27.5,1.3,31.2
				c-8.3-8.6-8.4-23.2-14.6-33c-3.4-5.3-11.5-5.6-17-5.1c-7.2,0.7-14.3,2.1-21.7,1.7c-8.3-0.5-14.3-2.3-18.2-10.1
				c-3.2-6.4-4.5-13.9-4.3-20.8c0.2-6.2,0.4-12.8-4.7-17.1c-4-3.4-10.5-3.6-15.4-3.8c-6.9-0.2-14.1-0.3-20.4-3.4
				c-11.6-5.7-12.1-17.3-11.1-28.7c0.8-9.7,1.3-20.2-7.6-26.2c-8.8-5.9-19.9-7.3-29.3-12.1c-7.2-3.7-12.4-10.8-10.1-19
				C150.4,179.4,155.9,174.5,160.9,170.5z"/>
		</g>
		<g>
			<path class="st37" d="M368.1,363.4c-6.3-2.6-14.5,0.8-20.5,2.8c-7.3,2.4-13.8,4.7-20.9,0.4c-12.6-7.8-10-25.3-15-37.2
				c-6-14.1-23.7-4.4-34.1-2.3c-8.4,1.7-19.6,0.6-25.4-6.5c-9.6-11.8-0.1-27.4-4.6-40.5c-3.2-9.6-17.5-6.5-24.7-5.8
				c-11.8,1.1-24.5-3.5-27.4-16.1c-2.8-12.1,6.7-26,1-37.4c-4.2-8.3-18.9-9.2-26.7-11.5c-9.2-2.7-23.6-8.1-22.5-20
				c0.7-8.2,7.5-13.9,13.5-18.7c5.6-4.5,13.7,3.4,8,8c-2.9,2.3-11.1,7.8-10.3,12c0.7,3.6,7.5,5.7,10.3,6.7c5.1,1.8,10.5,3,15.7,4.4
				c8.8,2.3,17.8,5.9,22.2,14.5c5.6,11,0.5,22.9-0.4,34.3c-1.2,15.6,14.9,12.6,25.5,11.8c9.8-0.8,20.2,2.6,25.2,11.5
				c3.7,6.4,3.3,14.4,2.7,21.5c-0.5,5.6-2.1,13.1,1,18.1c4.4,7,18.7,1.9,24.5,0.1c11.7-3.7,26.4-4.6,34.2,6.9
				c7.3,10.9,3.7,27.1,12.9,36.6c2.7,2.8,7.4,0.2,10.3-0.7c3.7-1.3,7.4-2.4,11.2-3.3c6.8-1.7,13.3-1.7,19.8,0.9
				C380.4,356.3,374.7,366.1,368.1,363.4L368.1,363.4z"/>
		</g>
		<g>
			<path class="st38" d="M259.1,291.4c0.4-4.1,0.6-8.5,0.1-12.6c1.4,5.2,1,11,0.6,16.3c-0.3,3.6-1.1,8-0.8,12
				C257.4,302.3,258.6,296.2,259.1,291.4z"/>
			<path class="st38" d="M205.7,246.6c0.7-8.7,3.8-17.5,2.8-26.1c2.6,9.7-1.4,19.9-2.1,29.8c-0.1,0.9-0.1,1.7,0,2.5
				C205.7,251.1,205.5,249.1,205.7,246.6z"/>
			<path class="st38" d="M158.8,188.5c-0.4-0.5-0.7-1.1-0.9-1.7c-0.8-4.2,7.4-9.7,10.3-12c1-0.8,1.6-1.7,1.8-2.6
				c1.2,1.9,1.2,4.4-1.1,6.3C166.4,180.4,160.1,184.7,158.8,188.5z"/>
			<path class="st38" d="M169.2,205.6c7.8,2.3,22.5,3.2,26.7,11.5c1,2.1,1.6,4.2,1.8,6.4c-0.3-1-0.6-1.9-1.1-2.8
				c-4.2-8.3-18.9-9.2-26.7-11.5c-8.7-2.5-22.1-7.5-22.5-18.3C150.2,199.3,161.5,203.4,169.2,205.6z"/>
			<path class="st38" d="M326.1,362.9c7,4.4,13.6,2,20.9-0.4c6-1.9,14.2-5.4,20.5-2.8c4.1,1.7,7.7-1.3,8.4-4.6
				c4,3.1,2.2,12.9-7.8,8.2c-4.6-2.2-14.5,0.8-20.5,2.8c-7.3,2.4-13.8,4.7-20.9,0.4c-8.1-5-9.9-14-11.5-22.9
				C316.8,351.3,319.1,358.6,326.1,362.9z"/>
			<path class="st38" d="M222.3,270.6c7.3-0.7,21.5-3.7,24.7,5.8c0.5,1.6,0.9,3.2,1.1,4.9c-0.1-0.4-0.2-0.8-0.4-1.2
				c-3.2-9.6-17.5-6.5-24.7-5.8c-11.8,1.1-24.5-3.5-27.4-16.1c-0.2-0.9-0.3-1.7-0.4-2.6C198.5,267.3,210.9,271.6,222.3,270.6z"/>
			<path class="st38" d="M251.6,316.9c5.8,7.1,17,8.2,25.4,6.5c10.3-2.2,28.1-11.8,34.1,2.3c1.6,3.8,2.4,8.1,3.2,12.6
				c-0.6-3.2-1.4-6.2-2.5-8.9c-6-14.1-23.7-4.4-34.1-2.3c-8.4,1.7-19.6,0.6-25.4-6.5c-2.7-3.3-3.9-7-4.3-10.7
				C248.6,312.3,249.8,314.6,251.6,316.9z"/>
		</g>
		<g>
			<g>
				<path class="st39" d="M352.4,359.2c-4.2,1.3-8.2,2.6-12.6,3.2c-4.5,0.6-8.1-0.5-11.5-3.5c-1.6-1.4-0.2-2.6,1.5-1.1
					c6.9,6,14.7,0.4,21.8-1.8C353.6,355.2,354.5,358.5,352.4,359.2L352.4,359.2z"/>
			</g>
			<g>
				<path class="st39" d="M325.1,354.6c-2.4-2.9-3-5.6-3.6-9c-0.3-2.1,2.5-2.9,2.4-0.4c-0.3,3.1,0.1,4.3,1.6,6.3
					C326.7,353.2,326.2,356.5,325.1,354.6L325.1,354.6z"/>
			</g>
			<g>
				<path class="st39" d="M285.9,317.9c-6.5,2.6-15.8,5.6-22.3,1.9c-3.4-1.9-4.2-4.6-2.4-3.4c4,2.8,11.5,2.7,14.7,2.1
					c3.3-0.6,7.1-2.3,10.2-3.5C288.2,314.2,287.9,317.1,285.9,317.9L285.9,317.9z"/>
			</g>
			<g>
				<path class="st39" d="M253.2,293.4c3.9-8.6,1.3-15.2-2.4-20.7c-2.4-3.6-6.6-6.3-10.7-6.1c-2.2,0.1-1.5-2.6,0.6-2
					c7,1.9,10.7,4.9,13.6,9.5c2.6,4,3,12.4,2.3,19.3C256.4,295.5,253,295.5,253.2,293.4L253.2,293.4z"/>
			</g>
			<g>
				<path class="st39" d="M205.5,261.8c-2.2-1.7-4.2-3.1-5-5.6c-0.9-2.7,0.2-5.6,0.6-8.5c0.3-2.2,2.4-0.9,2.2,1.2
					c-0.5,3.8,0.3,9.1,3.6,11.7C208.5,262,207.2,263.1,205.5,261.8L205.5,261.8z"/>
			</g>
			<g>
				<path class="st39" d="M202.1,241.7c0.8-2.6,1.5-4.9,1.1-7.5c-0.2-1.2,1.9-3.7,2.2-0.6c0.3,2.9-0.1,4.3-1,7.1
					C203.8,242.8,201.4,243.8,202.1,241.7L202.1,241.7z"/>
			</g>
			<g>
				<path class="st39" d="M182.9,206c-1.7-0.9-3.8-1.5-5.4-2.6c-1.8-1.3-3.6-2.9-1.5-2.4c2.1,0.5,6.1,1.7,8,2.7
					C186,204.8,184.8,207,182.9,206L182.9,206z"/>
			</g>
			<g>
				<path class="st39" d="M170,202.8c-7.3-1.5-18.1-6.8-16.7-15.8c0.4-2.2,2.9-1.7,2.5,0.4c-1.1,6.6,6,12,14.9,12.1
					C173,199.5,172.1,203.2,170,202.8L170,202.8z"/>
			</g>
		</g>
		<path class="st40" d="M237.8,390.3c-0.6,1.1-0.5,3.3-0.5,3.3s1.9-1,2.5-2.2c0.6-1.1,0.2-1.4-0.3-1.8
			C238.9,389.3,238.5,389.1,237.8,390.3z"/>
		<path class="st40" d="M108.9,252.1c-0.6,1.1-0.5,3.3-0.5,3.3s1.9-1,2.5-2.2c0.6-1.1,0.2-1.4-0.3-1.8
			C110,251.2,109.5,251,108.9,252.1z"/>
		<path class="st40" d="M251,378c-0.8,1.5-0.7,4.3-0.7,4.3s2.5-1.3,3.3-2.8c0.8-1.5,0.3-1.9-0.4-2.3
			C252.5,376.8,251.9,376.5,251,378z"/>
		<path class="st40" d="M265,407.9c-0.8,1.5-0.7,4.3-0.7,4.3s2.5-1.3,3.3-2.8c0.8-1.5,0.3-1.9-0.4-2.3
			C266.5,406.6,265.8,406.4,265,407.9z"/>
		<path class="st40" d="M144.4,274.4c-0.8,1.5-0.7,4.3-0.7,4.3s2.5-1.3,3.3-2.8c0.8-1.5,0.3-1.9-0.4-2.3
			C145.9,273.2,145.3,272.9,144.4,274.4z"/>
		<path class="st40" d="M224.7,364.6c0,1.5,1.4,3.6,1.4,3.6s1.3-2.2,1.3-3.7c0-1.5-0.6-1.6-1.4-1.6
			C225.2,363,224.6,363.1,224.7,364.6z"/>
		<path class="st40" d="M211,344.8c0,1.5,1.8,3.6,1.8,3.6s1.7-2.2,1.6-3.7c0-1.5-0.8-1.6-1.8-1.5C211.7,343.1,210.9,343.3,211,344.8
			z"/>
		<path class="st40" d="M124.1,259.4c0,1.5,1.8,3.6,1.8,3.6s1.7-2.2,1.7-3.7c0-1.5-0.8-1.6-1.8-1.5
			C124.9,257.8,124.1,257.9,124.1,259.4z"/>
		<path class="st40" d="M179,321.9c-1.1,1.1-1.3,3.8-1.3,3.8s2.7-0.3,3.8-1.4c1.1-1.1,0.6-1.7-0.1-2.4
			C180.7,321.3,180.1,320.8,179,321.9z"/>
		<path class="st40" d="M166.6,297.6c-1.1,1.1-1.3,3.8-1.3,3.8s2.7-0.3,3.8-1.4c1.1-1.1,0.6-1.7-0.1-2.4
			C168.3,297,167.7,296.5,166.6,297.6z"/>
		<path class="st40" d="M192.2,339.1c-0.9,1.2-1.2,3.6-1.2,3.6s2.3-0.8,3.3-2c0.9-1.2,0.5-1.6-0.1-2.1
			C193.6,338.2,193.1,337.9,192.2,339.1z"/>
		<path class="st40" d="M149.3,314.9c-0.9,1.2-1.2,3.6-1.2,3.6s2.3-0.8,3.3-2c0.9-1.2,0.5-1.6-0.1-2.1
			C150.7,314,150.2,313.7,149.3,314.9z"/>
		<path class="st40" d="M163.7,316c-1.5-0.3-3.8,0.5-3.8,0.5s1.8,1.7,3.2,2.1c1.5,0.3,1.7-0.3,1.8-1
			C165.1,316.9,165.1,316.3,163.7,316z"/>
		<path class="st40" d="M143.9,296.2c-1.5-0.3-3.8,0.5-3.8,0.5s1.8,1.7,3.2,2.1c1.5,0.3,1.7-0.3,1.8-1
			C145.3,297.2,145.4,296.6,143.9,296.2z"/>
		<path class="st40" d="M126.9,298.5c-1.5-0.3-3.8,0.5-3.8,0.5s1.8,1.7,3.2,2.1c1.5,0.3,1.7-0.3,1.8-1
			C128.4,299.4,128.4,298.8,126.9,298.5z"/>
		<path class="st40" d="M193.7,353.5c0,1.3,1.3,3.2,1.3,3.2s1.1-1.9,1.1-3.3c0-1.3-0.6-1.4-1.2-1.4
			C194.2,352.1,193.6,352.2,193.7,353.5z"/>
		<path class="st40" d="M120.7,278.3c0,1.3,1.3,3.2,1.3,3.2s1.1-1.9,1.1-3.3c0-1.3-0.6-1.4-1.2-1.4
			C121.2,276.8,120.7,276.9,120.7,278.3z"/>
		<path class="st40" d="M170.3,338.3c1.2,0.6,3.4,0.4,3.4,0.4s-1.2-1.9-2.4-2.5c-1.2-0.6-1.5-0.2-1.8,0.4
			C169.3,337.2,169.1,337.7,170.3,338.3z"/>
		<path class="st40" d="M177.5,358.6c1.2,0.6,3.4,0.4,3.4,0.4s-1.2-1.9-2.3-2.5c-1.2-0.6-1.5-0.2-1.8,0.4
			C176.5,357.5,176.3,358,177.5,358.6z"/>
		<path class="st40" d="M206.6,369.2c-0.6,1.3-0.2,3.5-0.2,3.5s1.9-1.3,2.5-2.5c0.6-1.3,0.1-1.5-0.5-1.8
			C207.7,368.1,207.2,367.9,206.6,369.2z"/>
		<path class="st40" d="M279.7,397.9c-0.1,1.3,1.1,2.9,1.1,2.9s1.4-1.5,1.5-2.7c0.1-1.3-0.5-1.5-1.2-1.5
			C280.4,396.4,279.8,396.6,279.7,397.9z"/>
		<path class="st40" d="M112.1,234.5c-0.1,1.3,1.1,2.9,1.1,2.9s1.4-1.5,1.5-2.7c0.1-1.3-0.5-1.5-1.2-1.5
			C112.8,233.1,112.1,233.2,112.1,234.5z"/>
	</g>
</g>
</svg>
